<?xml version="1.0" encoding="utf-8"?>
<!-- Generator: Adobe Illustrator 23.0.4, SVG Export Plug-In . SVG Version: 6.00 Build 0)  -->
<svg version="1.1" id="Capa_1" xmlns="http://www.w3.org/2000/svg" xmlns:xlink="http://www.w3.org/1999/xlink" x="0px" y="0px"
	 viewBox="0 0 210 210" style="enable-background:new 0 0 210 210;" xml:space="preserve">
<style type="text/css">
	.st0{fill:none;}
	.st1{fill:#A8D42E;}
	.st2{fill:#E1FF45;}
	.st3{fill:#313131;}
	.st4{fill:#A27100;}
	.st5{fill:#E1E345;}
</style>
<rect class="st0" width="210" height="210"/>
<g>
	<g>
		<path class="st1" d="M114.9,155.7c-14.4,26.9-47.6,35.5-73.3,19.3c-22-14-32.9-43.1-25.4-68.6C18.4,99,18,92,16.5,84.8l-2.1-9.6
			c-3.2-21.1,9.1-41.9,28.6-46.8c20.7-5.3,43,9.1,48.8,31.5c2.3,8.9,5.1,17.2,11.8,23.8C122.4,102.2,127.1,132.8,114.9,155.7z"/>
		<path class="st2" d="M79.9,173.3c-24.2,6.1-49.5-9.8-56.6-35.6c-2.6-9.4-2.5-19.2,0.2-28.3c2.8-9.3,2.5-18.9-0.8-31.9
			c-4.6-18.1,5.5-36.4,22.5-40.7l0.4-0.1c7.9-1.9,16.3-0.4,23.6,4.3c8,5.1,13.6,13.3,15.5,22.5c2.2,10.5,7,19.6,13.9,26.5
			c6.6,6.5,11.4,14.9,13.8,24.2c6.6,26.1-7.7,52.5-31.9,59L79.9,173.3z"/>
		<path class="st3" d="M60.7,97.7c-13.4,3.4-21.4,17.9-17.7,32.4c3.7,14.4,17.6,23.4,31,20c13.4-3.4,21.4-17.9,17.7-32.4
			C88.1,103.3,74.2,94.3,60.7,97.7z M73.5,148.1c-12.4,3.1-25.2-5.1-28.6-18.5c-3.4-13.4,3.9-26.8,16.3-29.9
			c12.4-3.1,25.2,5.1,28.6,18.5C93.2,131.6,85.9,145,73.5,148.1z"/>
		<path class="st4" d="M73.5,148.1c-12.4,3.1-25.2-5.1-28.6-18.5c-3.4-13.4,3.9-26.8,16.3-29.9c12.4-3.1,25.2,5.1,28.6,18.5
			C93.2,131.6,85.9,145,73.5,148.1z"/>
		<g>
			<circle class="st5" cx="66.6" cy="74.1" r="3.8"/>
			<circle class="st5" cx="44.3" cy="79.8" r="3.8"/>
		</g>
		<path class="st3" d="M107.1,80.1c-5.5-5.4-8.1-12.2-10.4-21.4c-6.4-25-31.5-41.1-54.8-35.1C20.1,29.1,5.9,52.1,9.5,76l0,0.2
			l2.1,9.7c1.5,7.5,1.4,13.4-0.3,19.1c-8.2,27.8,3.4,59,27.5,74.3c13.5,8.5,29.3,11.1,44.4,7.3c15.5-3.9,28.3-14,36-28.4
			C132.7,133.1,127.6,100.3,107.1,80.1z M114.9,155.7c-14.4,26.9-47.6,35.5-73.3,19.3c-22-14-32.9-43.1-25.4-68.6
			C18.4,99,18,92,16.5,84.8l-2.1-9.6c-3.2-21.1,9.1-41.9,28.6-46.8c20.7-5.3,43,9.1,48.8,31.5c2.3,8.9,5.1,17.2,11.8,23.8
			C122.4,102.2,127.1,132.8,114.9,155.7z"/>
		<g>
			<ellipse transform="matrix(0.9692 -0.2463 0.2463 0.9692 -13.9582 12.2558)" class="st3" cx="42" cy="61.9" rx="2.8" ry="6"/>
			<g>
				<path class="st3" d="M67.1,57.9c-0.4,0.1-0.8,0-1.1-0.2c-3.4-2-6.1-1.4-8.1,2.1c-0.4,0.7-1.3,0.9-2.1,0.5
					c-0.7-0.4-0.9-1.3-0.5-2.1c2.9-4.8,7.4-6,12.2-3.1c0.7,0.4,0.9,1.3,0.5,2.1C67.8,57.6,67.5,57.8,67.1,57.9z"/>
			</g>
		</g>
		<g>
			<path class="st3" d="M57.2,84c-3.7,0.9-7.7,0.1-12-2.4c-0.7-0.4-0.9-1.3-0.5-2.1c0.4-0.7,1.3-0.9,2.1-0.5
				c7.2,4.3,13.1,2.8,17.3-4.4c0.4-0.7,1.3-0.9,2.1-0.5c0.7,0.4,0.9,1.3,0.5,2.1C64.1,80.5,60.9,83.1,57.2,84z"/>
		</g>
		<path class="st5" d="M98.7,90c-6.9-6.8-11.7-16-13.9-26.5c-1.9-9.2-7.6-17.5-15.5-22.5c-7.3-4.7-15.7-6.2-23.6-4.3l-0.4,0.1
			c-1,0.3-2,0.6-2.9,0.9c7.2-1.1,14.6,0.6,21.1,4.8c8,5.1,13.6,13.3,15.5,22.5c2.2,10.5,7,19.6,13.9,26.5
			c6.6,6.5,11.4,14.9,13.8,24.2c6.4,25.2-6.8,50.8-29.5,58.3c1-0.2,1.9-0.4,2.9-0.6l0.5-0.1c24.2-6.5,38.6-33,31.9-59
			C110.1,104.9,105.3,96.6,98.7,90z"/>
	</g>
	<g>
		<path class="st1" d="M180.8,167c-20.6,22.5-54.9,22.7-75.8,0.6c-17.9-19-21.2-49.9-7.7-72.8c3.9-6.6,5.3-13.4,5.7-20.8l0.3-9.8
			C105.3,43,122.4,26,142.6,26c21.4,0,39.4,19.5,39.5,42.6c0,9.2,0.7,17.9,5.5,25.9C201.2,117,198.3,147.9,180.8,167z"/>
		<path class="st2" d="M142.6,175.5c-24.9,0-45.6-21.7-46.1-48.4c-0.2-9.8,2.3-19.2,7.2-27.4c5-8.4,7.1-17.7,7.1-31.1
			c0-18.7,14.3-33.9,31.8-33.9l0.5,0c8.1,0.1,15.9,3.7,21.8,10c6.5,6.9,9.9,16.2,9.5,25.7c-0.5,10.7,1.9,20.7,6.9,29.1
			c4.8,8,7.4,17.2,7.4,26.8c0,26.9-20.4,49-45.5,49.3L142.6,175.5z"/>
		<path class="st5" d="M142.6,149.5c-12.8,0-23.2-11.2-23.2-25c0-13.8,10.4-25,23.2-25c12.8,0,23.2,11.2,23.2,25
			C165.7,138.3,155.4,149.5,142.6,149.5z"/>
		<g>
			<circle class="st5" cx="154.1" cy="76.1" r="3.8"/>
			<circle class="st5" cx="131.1" cy="76" r="3.8"/>
		</g>
		<path class="st3" d="M191.9,91.9c-4-6.6-4.8-13.8-4.8-23.4c0-25.8-20.4-47.6-44.5-47.6c-22.5,0-41.9,18.8-44.3,42.8l0,0.2L98,73.8
			c-0.4,7.7-1.9,13.4-5,18.5c-14.8,24.9-11.3,58,8.3,78.7c11,11.6,25.6,18,41.3,18c16,0,30.9-6.6,41.9-18.6
			C203.6,149.5,206.7,116.5,191.9,91.9z M180.8,167c-20.6,22.5-54.9,22.7-75.8,0.6c-17.9-19-21.2-49.9-7.7-72.8
			c3.9-6.6,5.3-13.4,5.7-20.8l0.3-9.8C105.3,43,122.4,26,142.6,26c21.4,0,39.4,19.5,39.5,42.6c0,9.2,0.7,17.9,5.5,25.9
			C201.2,117,198.3,147.9,180.8,167z"/>
		<g>
			<ellipse class="st3" cx="134.1" cy="58.2" rx="2.8" ry="6"/>
			<ellipse class="st3" cx="151.1" cy="58.2" rx="2.8" ry="6"/>
		</g>
		<g>
			<path class="st3" d="M142.6,83.4c-3.8,0-7.5-1.8-11.1-5.3c-0.6-0.6-0.6-1.5,0-2.1c0.6-0.6,1.5-0.6,2.1,0c5.9,5.9,12,5.9,17.9,0
				c0.6-0.6,1.5-0.6,2.1,0c0.6,0.6,0.6,1.5,0,2.1C150.1,81.6,146.4,83.4,142.6,83.4z"/>
		</g>
		<path class="st5" d="M181.2,99.4c-5-8.3-7.4-18.4-6.9-29.1c0.4-9.4-3-18.8-9.5-25.7c-5.9-6.3-13.7-9.9-21.8-10l-0.5,0
			c-1,0-2,0.1-3,0.2c7.2,0.7,14,4.2,19.3,9.8c6.5,6.9,9.9,16.2,9.5,25.7c-0.5,10.7,1.9,20.7,6.9,29.1c4.8,8,7.4,17.2,7.4,26.8
			c0,26-19.1,47.5-43,49.2c1,0.1,1.9,0.1,2.9,0.1l0.6,0c25.1-0.3,45.5-22.5,45.5-49.3C188.6,116.6,186.1,107.4,181.2,99.4z"/>
	</g>
</g>
</svg>
