<?xml version="1.0" encoding="utf-8"?>
<!-- Generator: Adobe Illustrator 23.0.6, SVG Export Plug-In . SVG Version: 6.00 Build 0)  -->
<svg version="1.1" id="Capa_1" xmlns="http://www.w3.org/2000/svg" xmlns:xlink="http://www.w3.org/1999/xlink" x="0px" y="0px"
	 viewBox="0 0 24 24" style="enable-background:new 0 0 24 24;" xml:space="preserve">
<style type="text/css">
	.st0{fill:none;}
	.st1{fill:#FFFFFF;}
</style>
<path class="st0" d="M0,0h24v24H0V0z"/>
<path class="st1" d="M10.7,16.3c-0.4,0.4-1,0.4-1.4,0l-3.6-3.6c-0.4-0.4-0.4-1,0-1.4s1-0.4,1.4,0l2.9,2.9l6.9-6.9
	c0.4-0.4,1-0.4,1.4,0s0.4,1,0,1.4C18.3,8.7,10.7,16.3,10.7,16.3z"/>
<path class="st1" d="M12,0C5.4,0,0,5.4,0,12s5.4,12,12,12s12-5.4,12-12S18.6,0,12,0z M12,22C6.5,22,2,17.5,2,12C2,6.5,6.5,2,12,2
	c5.5,0,10,4.5,10,10C22,17.5,17.5,22,12,22z"/>
</svg>
