<?xml version="1.0" encoding="utf-8"?>
<!-- Generator: Adobe Illustrator 23.0.6, SVG Export Plug-In . SVG Version: 6.00 Build 0)  -->
<svg version="1.1" id="Capa_1" xmlns="http://www.w3.org/2000/svg" xmlns:xlink="http://www.w3.org/1999/xlink" x="0px" y="0px"
	 viewBox="0 0 210 230.9" style="enable-background:new 0 0 210 230.9;" xml:space="preserve">
<style type="text/css">
	.st0{fill:#C9C9C9;}
	.st1{fill:#F7FFA2;}
	.st2{fill:#F7FB6C;}
	.st3{fill:#313131;}
	.st4{fill:#FF6845;}
	.st5{fill:#FF5200;}
	.st6{fill:#A8D42E;}
	.st7{fill:#94D467;}
	.st8{fill:#8B5600;}
</style>
<g>
	<ellipse class="st0" cx="78.7" cy="228.4" rx="21.8" ry="2.5"/>
	<ellipse class="st0" cx="131.3" cy="228.4" rx="21.8" ry="2.5"/>
</g>
<path class="st1" d="M68.7,190.7c3.7-16.2,5.9-36.7,5.9-59c0-17.9-1.4-34.7-3.9-49h68.5c-2.5,14.3-3.9,31.1-3.9,49
	c0,22.3,2.2,42.8,5.9,59H68.7z"/>
<ellipse class="st2" cx="105" cy="99" rx="35.5" ry="11.2"/>
<ellipse class="st2" cx="105" cy="183.5" rx="35.5" ry="11.2"/>
<path class="st3" d="M146.1,189.6c-3.7-16.3-5.8-36.8-5.8-57.8c0-17,1.3-33.7,3.8-48.1l1-5.9H64.8l1,5.9c2.5,14.4,3.8,31.1,3.8,48.1
	c0,21-2.1,41.5-5.8,57.8l-1.4,6.1h85.1L146.1,189.6z M68.7,190.7c3.7-16.2,5.9-36.7,5.9-59c0-17.9-1.4-34.7-3.9-49h68.5
	c-2.5,14.3-3.9,31.1-3.9,49c0,22.3,2.2,42.8,5.9,59H68.7z"/>
<g>
	<ellipse class="st3" cx="93.9" cy="130.3" rx="2.8" ry="6"/>
	<ellipse class="st3" cx="116.1" cy="130.3" rx="2.8" ry="6"/>
</g>
<path class="st4" d="M105,100.3c-32.4,0-61.8-3-83.9-7.8c2-6.2,5-12,9.5-17.4c0.9-1.1,1.8-2.2,2.7-3.2c5.9-6.3,13.2-10.8,21.1-13.1
	c9.3-2.8,19.4-2.7,28.9,0.4c3.7,1.2,7.3,2.9,10.7,5.2l10.9,0.2l10.9-0.2c3.4-2.2,7-3.9,10.7-5.2C136,56,146,56,155.4,58.8
	c7.9,2.4,15.2,6.8,21.1,13.2c0.9,1,1.8,2,2.7,3c4.5,5.5,7.5,11.4,9.5,17.6C166.6,97.4,137.3,100.3,105,100.3z"/>
<path class="st5" d="M144.4,59c7.9,2.6,15.2,7.4,21.1,14.3c0.9,1.1,1.8,2.2,2.7,3.3c4.3,5.7,7.2,11.8,9.2,18.2
	c3.9-0.7,7.7-1.4,11.2-2.2c-2-6.2-5-12.1-9.5-17.6c-0.9-1-1.8-2-2.7-3c-5.9-6.4-13.2-10.8-21.1-13.2c-6.3-1.9-13-2.5-19.5-1.7
	C138.7,57.4,141.6,58.1,144.4,59z"/>
<path class="st3" d="M173.5,187.1c-18.4-5.7-43.1-8.8-69.5-8.8c-25.5,0-49.5,2.9-67.7,8.3l-2.5,0.7c-1.9,0.6-2.7,2.8-1.7,4.4
	l1.4,2.2c6.6,10.7,14.4,19.8,22.6,26.4c7.6,6.1,15.3,9.1,22.8,9.1c0,0,0,0,0,0c6,0,11.9-1.9,17.6-5.7c0.7-0.4,1.2-0.8,1.6-1.1
	l0.3-0.2l0.2-0.2c0.2-0.2,0.4-0.3,0.6-0.5l0.3-0.2l0.3-0.3c1.4-1.2,3.4-1.8,5.3-1.8c1.8,0,3.7,0.7,5.4,1.9c0.5,0.5,1.1,0.9,1.5,1.3
	c2.6,2,5.6,3.8,9,5.2l0.1,0.1c3.2,1.2,6.4,1.9,9.8,1.9c21.1,0,38.7-24.7,45.4-35.3l1.4-2.2c1-1.7,0.2-3.9-1.7-4.5L173.5,187.1z
	 M123,223.3c-2.8-1.2-5.5-2.7-7.9-4.6c-0.4-0.3-0.8-0.6-1.1-0.9c-0.1-0.1-0.1-0.1-0.2-0.2c-2.6-2-5.7-3.1-8.7-3.1s-6.2,1-8.7,3.1
	c-0.1,0.1-0.1,0.1-0.2,0.2c-0.4,0.3-0.8,0.6-1.1,0.9c-0.4,0.3-0.8,0.6-1.3,0.9c-11.5,7.8-23.1,6.1-34.6-3.1
	c-7.6-6.1-15-14.7-21.5-25.1c17-5,40.4-8.1,66.3-8.1c26.8,0,50.9,3.3,68.1,8.6C160.3,210.7,141.3,230.5,123,223.3z"/>
<path class="st3" d="M193.4,91c-2.3-7.2-5.7-13.5-10.4-19.2l-0.1-0.1l-2.8-3.1c-6.3-6.8-14.4-11.9-23.3-14.6
	c-5-1.5-10.2-2.3-15.4-2.3c-5.6,0-11.2,0.9-16.6,2.7c-3.8,1.3-7.3,3-10.5,4.9l-9.4,0.2l-9.4-0.2c-3.3-2.1-6.9-3.8-10.7-5
	c-5.4-1.8-11-2.7-16.7-2.7c-5.2,0-10.3,0.7-15.2,2.2c-8.8,2.6-16.9,7.6-23.4,14.6c-1,1.1-1.9,2.3-2.9,3.4c-4.6,5.7-8,11.9-10.3,19
	l-0.7,2.1c-0.5,1.7,0.5,3.5,2.2,3.9l2.1,0.5c23.3,5.1,53.4,7.9,85,7.9c31.4,0,61.5-2.8,84.7-7.9l2.2-0.5c1.7-0.4,2.8-2.2,2.2-3.9
	L193.4,91z M105,100.3c-32.4,0-61.8-3-83.9-7.8c2-6.2,5-12,9.5-17.4c0.9-1.1,1.8-2.2,2.7-3.2c5.9-6.3,13.2-10.8,21.1-13.1
	c9.3-2.8,19.4-2.7,28.9,0.4c3.7,1.2,7.3,2.9,10.7,5.2l10.9,0.2l10.9-0.2c3.4-2.2,7-3.9,10.7-5.2C136,56,146,56,155.4,58.8
	c7.9,2.4,15.2,6.8,21.1,13.2c0.9,1,1.8,2,2.7,3c4.5,5.5,7.5,11.4,9.5,17.6C166.6,97.4,137.3,100.3,105,100.3z"/>
<path class="st3" d="M121.6,79.1H80.8c-1.4,0-2.5-1.1-2.5-2.5l0,0c0-1.4,1.1-2.5,2.5-2.5h40.7c1.4,0,2.5,1.1,2.5,2.5l0,0
	C124.1,78,122.9,79.1,121.6,79.1z"/>
<g>
	<path class="st3" d="M106.5,74.1c3.2,2.9,7.3,4.6,12,4.9c11.7,0.9,26-6.4,37.1-19c15.1-17,16.3-52.5,16.3-54l0.2-6l-5.9,0.9
		c-1.5,0.2-36.4,5.5-51.4,22.3C98.7,41.5,95,63.8,106.5,74.1z M118.6,26.6C132.6,10.9,167,5.9,167,5.9s-1.1,35-15.1,50.8
		s-32.8,22-42.1,13.7C100.6,62.1,104.6,42.3,118.6,26.6z"/>
	<g>
		<path class="st6" d="M118.6,26.6C132.6,10.9,167,5.9,167,5.9s-1.1,35-15.1,50.8s-32.8,22-42.1,13.7
			C100.6,62.1,104.6,42.3,118.6,26.6z"/>
		<path class="st7" d="M161.7,6.9c-0.3,5.7-2.4,35.6-15,49.8c-8.9,10-19.7,16.1-28.7,17.2c9.9,1.3,23.3-5.1,34-17.2
			c14-15.8,15.1-50.8,15.1-50.8S164.9,6.2,161.7,6.9z"/>
	</g>
</g>
<g>
	<path class="st3" d="M75,45.7l16,12c1.3,1,2.1,2.6,2.1,4.3v13.2c0,2.2,1.8,3.9,3.9,3.9h21.9c2.9,0,5.2-2.3,5.2-5.2V60.3
		c0-10.3-4.6-19.8-12.7-26.1l-17.2-13c-2-1.6-4.7-2.5-7.3-2.5c-0.5,0-1,0-1.5,0.1c-3.1,0.4-5.9,2-7.9,4.4l-1.8,2.1v0.3l-2.5,3.3
		C69,34.1,69.9,41.6,75,45.7z M77,32l3.5-4.7v-0.1l0.7-0.8c1.1-1.5,2.8-2.4,4.7-2.7c1.8-0.2,3.7,0.3,5.2,1.4L108.3,38
		c6.8,5.3,10.8,13.5,10.8,22.1v13.8h-10.3H98.1V61.8c0-3.2-1.5-6.3-4.1-8.3L78.1,41.8C75.1,39.4,74.6,35,77,32z"/>
	<path class="st8" d="M77,32l3.5-4.7v-0.1l0.7-0.8c1.1-1.5,2.8-2.4,4.7-2.7c1.8-0.2,3.7,0.3,5.2,1.4L108.3,38
		c6.8,5.3,10.8,13.5,10.8,22.1v13.8h-10.3H98.1V61.8c0-3.2-1.5-6.3-4.1-8.3L78.1,41.8C75.1,39.4,74.6,35,77,32z"/>
</g>
<path class="st4" d="M123,223.3c-2.8-1.2-5.5-2.7-7.9-4.6c-0.4-0.3-0.8-0.6-1.1-0.9c-0.1-0.1-0.1-0.1-0.2-0.2
	c-2.6-2-5.7-3.1-8.7-3.1s-6.2,1-8.7,3.1c-0.1,0.1-0.1,0.1-0.2,0.2c-0.4,0.3-0.8,0.6-1.1,0.9c-0.4,0.3-0.8,0.6-1.3,0.9
	c-11.5,7.8-23.1,6.1-34.6-3.1c-7.6-6.1-15-14.7-21.5-25.1c17-5,40.4-8.1,66.3-8.1c26.8,0,50.9,3.3,68.1,8.6
	C160.3,210.7,141.3,230.5,123,223.3z"/>
<path class="st5" d="M161.6,189.1c-9,15.8-22,31.9-35.6,35.1c17.4,4.1,35-14.5,46.1-32.3C168.8,190.9,165.3,190,161.6,189.1z"/>
<g>
	<line class="st3" x1="94.3" y1="158.4" x2="115.7" y2="150.2"/>
	<path class="st3" d="M94.3,160.9c-1.1,0-2.1-0.7-2.4-1.9c-0.3-1.3,0.5-2.5,1.7-3l21.1-8c1.2-0.5,2.7,0,3.3,1.2
		c0.6,1.3,0,2.9-1.4,3.4l-21.5,8.2C94.9,160.8,94.6,160.9,94.3,160.9z"/>
</g>
</svg>
