<?xml version="1.0" encoding="utf-8"?>
<!-- Generator: Adobe Illustrator 23.0.6, SVG Export Plug-In . SVG Version: 6.00 Build 0)  -->
<svg version="1.1" id="Capa_1" xmlns="http://www.w3.org/2000/svg" xmlns:xlink="http://www.w3.org/1999/xlink" x="0px" y="0px"
	 viewBox="0 0 184.9 230.6" style="enable-background:new 0 0 184.9 230.6;" xml:space="preserve">
<style type="text/css">
	.st0{fill:#C9C9C9;}
	.st1{fill:#FF6845;}
	.st2{fill:#FF5200;}
	.st3{fill:#313131;}
	.st4{fill:#A8D42E;}
	.st5{fill:#94D467;}
	.st6{fill:#8B5600;}
</style>
<g>
	<ellipse class="st0" cx="66.2" cy="228.1" rx="21.8" ry="2.5"/>
	<ellipse class="st0" cx="118.8" cy="228.1" rx="21.8" ry="2.5"/>
</g>
<path class="st1" d="M179.9,121.3c-0.3,21-5.3,41.7-14.7,60.6c-10.5,20.7-33,49.8-54.7,41.3c-2.8-1.2-5.5-2.7-7.9-4.6
	c-0.4-0.3-0.8-0.6-1.1-0.9c-0.1-0.1-0.1-0.1-0.2-0.2c-2.6-2-5.7-3.1-8.7-3.1s-6.2,1-8.7,3.1c-0.1,0.1-0.1,0.1-0.2,0.2
	c-0.4,0.3-0.8,0.6-1.1,0.9c-0.4,0.3-0.8,0.6-1.3,0.9c-11.5,7.8-23.1,6.1-34.6-3.1c-21-16.9-40.8-52.5-41.5-95.2c0-1,0-2,0-3
	C5.1,102.5,7.8,87.6,18.1,75c0.9-1.1,1.8-2.2,2.7-3.2C26.7,65.5,34,61,41.9,58.7c9.3-2.8,19.4-2.7,28.9,0.4
	c3.7,1.2,7.3,2.9,10.7,5.2l10.9,0.2l10.9-0.2c3.4-2.2,7-3.9,10.7-5.2c9.5-3.2,19.5-3.2,28.9-0.4c7.9,2.4,15.2,6.8,21.1,13.2
	c0.9,1,1.8,2,2.7,3c10.3,12.6,13,27.6,13.1,43.2C179.9,119.2,179.9,120.2,179.9,121.3z"/>
<path class="st2" d="M166.8,74.9c-0.9-1-1.8-2.1-2.7-3c-5.9-6.4-13.2-10.8-21.1-13.2c-5.3-1.6-10.8-2.3-16.4-2
	c3.8,0.2,7.6,0.9,11.3,2c7.9,2.4,15.2,6.8,21.1,13.2c0.9,1,1.8,2,2.7,3c10.3,12.6,13,27.6,13.1,43.2c0,1.1,0,2.1,0,3.2
	c-0.3,21-5.3,41.7-14.7,60.6c-8.8,17.4-26.1,40.6-44.2,42.6c19.9,2.3,39.6-23.7,49.2-42.6c9.4-18.8,14.4-39.5,14.7-60.6
	c0-1.1,0-2.1,0-3.2C179.8,102.5,177.1,87.5,166.8,74.9z"/>
<path class="st3" d="M102.3,219.9c-0.1,0-0.2-0.1-0.3-0.1C102.1,219.9,102.2,219.9,102.3,219.9z"/>
<path class="st3" d="M101.6,219.7c-0.1,0-0.2,0-0.3-0.1C101.4,219.7,101.5,219.7,101.6,219.7z"/>
<path class="st3" d="M103,220.2c-0.1,0-0.2-0.1-0.2-0.1C102.8,220.2,102.9,220.2,103,220.2z"/>
<path class="st3" d="M90.4,217.7c-0.4,0.3-0.8,0.6-1.1,0.9C89.6,218.3,90,218,90.4,217.7z"/>
<path class="st3" d="M100.8,219.6c-0.1,0-0.3,0-0.4-0.1C100.6,219.5,100.7,219.5,100.8,219.6z"/>
<path class="st3" d="M96.4,219.9c-0.2,0.1-0.3,0.1-0.5,0.2C96,220.1,96.2,220,96.4,219.9z"/>
<path class="st3" d="M95.7,220.2c-0.2,0.1-0.3,0.2-0.5,0.3C95.3,220.4,95.5,220.3,95.7,220.2z"/>
<path class="st3" d="M98.6,219.5c-0.1,0-0.2,0-0.4,0C98.3,219.5,98.5,219.5,98.6,219.5z"/>
<path class="st3" d="M100.1,219.5c-0.2,0-0.5,0-0.7,0C99.6,219.4,99.9,219.4,100.1,219.5z"/>
<path class="st3" d="M97.8,219.6c-0.1,0-0.3,0.1-0.4,0.1C97.6,219.6,97.7,219.6,97.8,219.6z"/>
<path class="st3" d="M97.1,219.7c-0.1,0-0.3,0.1-0.4,0.1C96.8,219.8,96.9,219.8,97.1,219.7z"/>
<path class="st3" d="M103.7,220.5c-0.1,0-0.1-0.1-0.2-0.1C103.6,220.5,103.6,220.5,103.7,220.5z"/>
<path class="st3" d="M94.3,220.9c-0.2,0.1-0.4,0.3-0.6,0.4C94,221.2,94.1,221.1,94.3,220.9z"/>
<path class="st3" d="M95,220.5c-0.2,0.1-0.4,0.2-0.5,0.3C94.6,220.8,94.8,220.7,95,220.5z"/>
<path class="st3" d="M99.3,219.4C99.3,219.4,99.3,219.4,99.3,219.4C99.3,219.4,99.3,219.4,99.3,219.4
	C99.3,219.4,99.3,219.4,99.3,219.4z"/>
<path class="st3" d="M106.5,222.6c-0.5-0.4-1-0.7-1.5-1.1C105.5,221.9,106,222.3,106.5,222.6z"/>
<path class="st3" d="M104.9,221.4C104.9,221.4,104.9,221.4,104.9,221.4C104.9,221.4,104.9,221.4,104.9,221.4
	C104.9,221.4,104.9,221.4,104.9,221.4z"/>
<path class="st3" d="M93.6,221.5c0,0,0.1-0.1,0.1-0.1c0,0,0,0,0,0C93.7,221.4,93.6,221.5,93.6,221.5z"/>
<path class="st3" d="M99.3,214.4c3.1,0,6.2,1,8.7,3.1c0.1,0.1,0.1,0.1,0.2,0.2c-0.1-0.1-0.1-0.1-0.2-0.2
	C105.5,215.5,102.4,214.4,99.3,214.4z"/>
<path class="st3" d="M104.3,220.9C104.3,220.9,104.2,220.9,104.3,220.9C104.2,220.9,104.3,220.9,104.3,220.9z"/>
<path class="st3" d="M99.3,219.4c-0.2,0-0.5,0-0.7,0C98.8,219.4,99,219.4,99.3,219.4z"/>
<path class="st3" d="M98.2,219.5c-0.1,0-0.3,0-0.4,0.1C98,219.5,98.1,219.5,98.2,219.5z"/>
<path class="st3" d="M104.9,221.4c-0.2-0.2-0.4-0.3-0.6-0.4C104.5,221.1,104.7,221.2,104.9,221.4z"/>
<path class="st3" d="M104.2,220.9c-0.2-0.1-0.4-0.2-0.5-0.3C103.9,220.7,104,220.8,104.2,220.9z"/>
<path class="st3" d="M100.4,219.5c-0.1,0-0.2,0-0.4,0C100.2,219.5,100.3,219.5,100.4,219.5z"/>
<path class="st3" d="M103.5,220.5c-0.2-0.1-0.3-0.2-0.5-0.3C103.2,220.3,103.3,220.4,103.5,220.5z"/>
<path class="st3" d="M102.8,220.1c-0.2-0.1-0.3-0.1-0.5-0.2C102.5,220,102.6,220.1,102.8,220.1z"/>
<path class="st3" d="M102,219.9c-0.1,0-0.3-0.1-0.4-0.1C101.7,219.8,101.9,219.8,102,219.9z"/>
<path class="st3" d="M101.2,219.6c-0.1,0-0.3-0.1-0.4-0.1C101,219.6,101.1,219.6,101.2,219.6z"/>
<path class="st3" d="M90.6,217.5c-0.1,0.1-0.1,0.1-0.2,0.2C90.4,217.6,90.5,217.6,90.6,217.5c2.6-2,5.7-3.1,8.8-3.1
	C96.2,214.4,93.1,215.5,90.6,217.5z"/>
<path class="st3" d="M104.9,221.4c0,0,0.1,0.1,0.1,0.1C105,221.5,105,221.4,104.9,221.4C104.9,221.4,104.9,221.4,104.9,221.4z"/>
<path class="st3" d="M99.3,219.4C99.4,219.4,99.4,219.4,99.3,219.4C99.4,219.4,99.4,219.4,99.3,219.4
	C99.3,219.4,99.3,219.4,99.3,219.4z"/>
<path class="st3" d="M93.7,221.4C93.7,221.4,93.8,221.4,93.7,221.4C93.8,221.4,93.7,221.4,93.7,221.4
	C93.7,221.4,93.7,221.4,93.7,221.4z"/>
<path class="st3" d="M93.6,221.5c-0.5,0.4-1,0.8-1.5,1.1C92.6,222.3,93.1,221.9,93.6,221.5z"/>
<path class="st3" d="M97.4,219.6c-0.1,0-0.2,0-0.3,0.1C97.2,219.7,97.3,219.7,97.4,219.6z"/>
<path class="st3" d="M94.4,220.9C94.4,220.9,94.4,220.9,94.4,220.9C94.4,220.9,94.4,220.9,94.4,220.9z"/>
<path class="st3" d="M95.1,220.5c-0.1,0-0.1,0-0.2,0.1C95,220.5,95.1,220.5,95.1,220.5z"/>
<path class="st3" d="M95.9,220.1c-0.1,0-0.2,0.1-0.2,0.1C95.7,220.2,95.8,220.2,95.9,220.1z"/>
<path class="st3" d="M109.4,218.5c-0.4-0.3-0.8-0.6-1.1-0.9C108.7,218,109,218.3,109.4,218.5z"/>
<path class="st3" d="M96.6,219.9c-0.1,0-0.2,0.1-0.3,0.1C96.5,219.9,96.6,219.9,96.6,219.9z"/>
<path class="st3" d="M170.7,71.9c-1.1-1.4-2.2-2.7-3.4-3.9c-9.9-10.5-23.5-16.4-38.2-16.4c-9.6,0-19,2.6-27.2,7.6
	c-0.1,0.1-0.3,0.2-0.4,0.3l-9-0.1l-9,0.1c-0.1-0.1-0.3-0.2-0.4-0.3c-8.2-5-17.6-7.6-27.2-7.6c-14.6,0-28.3,5.9-38.2,16.4
	c-1.2,1.2-2.3,2.4-3.3,3.7C2,86.7,0,104.3,0,118.5c0,1,0,1.9,0,2.9c0.1,7.1,0.7,14.2,1.9,21.3c0,0.2,0.1,0.4,0.1,0.6
	c0.2,1.1,0.4,2.1,0.6,3.1c0.1,0.7,0.3,1.4,0.4,2.1c0.1,0.5,0.2,1,0.3,1.6c0.2,1.2,0.5,2.3,0.8,3.4c0,0.1,0,0.1,0,0.2
	c2,8.2,4.6,15.8,7.6,22.8c1.1,2.6,2.3,5.2,3.6,7.7c10.7,21,30.4,45.5,51.2,45.5h0c3.3,0,6.6-0.6,9.8-1.9c3.3-1.3,6.2-3.1,9-5.1
	c0.5-0.4,1-0.7,1.5-1.1c0,0,0.1-0.1,0.1-0.1c0,0,0,0,0,0c0,0,0,0,0,0c0,0,0,0,0,0c0.2-0.2,0.4-0.3,0.6-0.4c0,0,0.1,0,0.1-0.1
	c0.2-0.1,0.4-0.2,0.5-0.3c0.1,0,0.1-0.1,0.2-0.1c0.2-0.1,0.3-0.2,0.5-0.3c0.1,0,0.2-0.1,0.2-0.1c0.2-0.1,0.3-0.1,0.5-0.2
	c0.1,0,0.2-0.1,0.3-0.1c0.1,0,0.3-0.1,0.4-0.1c0.1,0,0.2,0,0.3-0.1c0.1,0,0.3-0.1,0.4-0.1c0.1,0,0.3,0,0.4-0.1c0.1,0,0.2,0,0.4,0
	c0.2,0,0.5,0,0.7,0c0,0,0,0,0.1,0c0,0,0,0,0,0s0,0,0,0c0,0,0,0,0.1,0c0.2,0,0.5,0,0.7,0c0.1,0,0.2,0,0.4,0c0.1,0,0.3,0,0.4,0.1
	c0.1,0,0.3,0.1,0.4,0.1c0.1,0,0.2,0,0.3,0.1c0.1,0,0.3,0.1,0.4,0.1c0.1,0,0.2,0.1,0.3,0.1c0.2,0.1,0.3,0.1,0.5,0.2
	c0.1,0,0.2,0.1,0.2,0.1c0.2,0.1,0.3,0.2,0.5,0.3c0.1,0,0.1,0,0.2,0.1c0.2,0.1,0.4,0.2,0.5,0.3c0,0,0.1,0,0.1,0.1
	c0.2,0.1,0.4,0.3,0.6,0.4c0,0,0,0,0,0c0,0,0,0,0,0c0,0,0,0,0,0c0,0,0.1,0.1,0.1,0.1c0.5,0.4,1,0.8,1.5,1.1c6.1,4.5,12.5,6.8,19,6.8
	c7.6,0,15.3-3.1,22.8-9.2c11-8.8,23.1-23.8,31.7-43.8c3.1-7.4,5.7-15,7.6-22.8c0-0.1,0-0.1,0-0.2c0.3-1.1,0.5-2.3,0.8-3.4
	c0.1-0.5,0.2-1,0.3-1.6c0.1-0.7,0.3-1.4,0.4-2.1c0.2-1,0.4-2.1,0.6-3.1c0-0.2,0.1-0.4,0.1-0.6c1.1-6.8,1.8-14,1.9-21.4
	c0-0.9,0-1.8,0-2.7C184.9,104.3,182.9,86.8,170.7,71.9z M179.9,121.3c-0.3,21-5.3,41.7-14.7,60.6c-10.5,20.7-33,49.8-54.7,41.3
	c-2.8-1.2-5.5-2.7-7.9-4.6c-0.4-0.3-0.8-0.6-1.1-0.9c-0.1-0.1-0.1-0.1-0.2-0.2c-2.6-2-5.7-3.1-8.7-3.1s-6.2,1-8.7,3.1
	c-0.1,0.1-0.1,0.1-0.2,0.2c-0.4,0.3-0.8,0.6-1.1,0.9c-0.4,0.3-0.8,0.6-1.3,0.9c-11.5,7.8-23.1,6.1-34.6-3.1
	c-21-16.9-40.8-52.5-41.5-95.2c0-1,0-2,0-3C5.1,102.5,7.8,87.6,18.1,75c0.9-1.1,1.8-2.2,2.7-3.2C26.7,65.5,34,61,41.9,58.7
	c9.3-2.8,19.4-2.7,28.9,0.4c3.7,1.2,7.3,2.9,10.7,5.2l10.9,0.2l10.9-0.2c3.4-2.2,7-3.9,10.7-5.2c9.5-3.2,19.5-3.2,28.9-0.4
	c7.9,2.4,15.2,6.8,21.1,13.2c0.9,1,1.8,2,2.7,3c10.3,12.6,13,27.6,13.1,43.2C179.9,119.2,179.9,120.2,179.9,121.3z"/>
<path class="st3" d="M184.9,118.5c0-14.2-2-31.8-14.2-46.8c-1.1-1.3-2.2-2.5-3.3-3.7c1.2,1.2,2.3,2.5,3.4,3.9
	C182.9,86.8,184.9,104.3,184.9,118.5z"/>
<path class="st3" d="M180.8,153.6c-1.9,7.8-4.4,15.4-7.6,22.8C176.2,169.4,178.8,161.8,180.8,153.6z"/>
<path class="st3" d="M182.4,146.3c-0.1,0.7-0.3,1.4-0.4,2.1C182.1,147.7,182.2,147,182.4,146.3z"/>
<path class="st3" d="M181.6,150c-0.2,1.2-0.5,2.3-0.8,3.4C181.1,152.3,181.4,151.1,181.6,150z"/>
<path class="st3" d="M183,142.6c0,0.2-0.1,0.4-0.1,0.6C182.9,143,183,142.8,183,142.6z"/>
<path class="st3" d="M138.4,216.3c-11.9,9.5-23.9,11.1-35.8,2.2c2.4,1.8,5.1,3.4,7.9,4.6c21.7,8.5,44.2-20.5,54.7-41.3
	c9.4-18.8,14.4-39.5,14.7-60.6c0-1.1,0-2.1,0-3.2c0,1,0,2,0,3C179.2,163.8,159.4,199.5,138.4,216.3z"/>
<path class="st3" d="M181.9,148.4c-0.1,0.5-0.2,1-0.3,1.6C181.7,149.5,181.8,148.9,181.9,148.4z"/>
<path class="st3" d="M182.9,143.2c-0.2,1.1-0.4,2.1-0.6,3.1C182.5,145.3,182.7,144.3,182.9,143.2z"/>
<path class="st3" d="M180.8,153.4c0,0.1,0,0.1,0,0.2C180.8,153.6,180.8,153.5,180.8,153.4z"/>
<path class="st3" d="M179.9,118.1c-0.1-15.6-2.8-30.6-13.1-43.2c-0.9-1-1.8-2.1-2.7-3c0.9,1,1.8,2.1,2.7,3.2
	C177.1,87.6,179.8,102.5,179.9,118.1z"/>
<path class="st3" d="M184.9,121.2c-0.1,7.5-0.8,14.6-1.9,21.4c1.1-7,1.8-14.2,1.9-21.3c0-0.9,0-1.9,0-2.9
	C184.9,119.4,184.9,120.3,184.9,121.2z"/>
<path class="st3" d="M141.5,220.2c-7.6,6.1-15.3,9.2-22.8,9.2c-6.5,0-12.9-2.3-19-6.8c2.8,2.1,5.7,3.8,9,5.1
	c3.2,1.2,6.4,1.9,9.8,1.9h0c20.8,0,40.6-24.5,51.2-45.5c1.3-2.5,2.4-5.1,3.6-7.7C164.6,196.4,152.5,211.4,141.5,220.2z"/>
<path class="st3" d="M109.2,79H68.4c-1.4,0-2.5-1.1-2.5-2.5v0c0-1.4,1.1-2.5,2.5-2.5h40.7c1.4,0,2.5,1.1,2.5,2.5v0
	C111.7,77.9,110.5,79,109.2,79z"/>
<g>
	<ellipse class="st3" cx="65.1" cy="158.4" rx="2.8" ry="6"/>
	<ellipse class="st3" cx="115.4" cy="158.4" rx="2.8" ry="6"/>
</g>
<path class="st2" d="M65.2,189.2l-0.1,0.1l-0.1-0.1c-6.2-5.6-10.2-9.2-10.2-12.9c0-2.6,1.9-4.5,4.5-4.5c1.9,0,3.9,1.3,4.7,3.1h2.5
	c0.6-1.8,2.6-3.1,4.5-3.1c2.6,0,4.5,1.9,4.5,4.5C75.5,180,71.4,183.6,65.2,189.2z"/>
<path class="st2" d="M116.1,189.2l-0.1,0.1l-0.1-0.1c-6.2-5.6-10.2-9.2-10.2-12.9c0-2.6,1.9-4.5,4.5-4.5c1.9,0,3.9,1.3,4.7,3.1h2.5
	c0.6-1.8,2.6-3.1,4.5-3.1c2.6,0,4.5,1.9,4.5,4.5C126.3,180,122.3,183.6,116.1,189.2z"/>
<g>
	<path class="st3" d="M90.9,195.4c-8.7,0-17.3-4.4-26.1-13.2c-0.7-0.7-0.7-1.9,0-2.6c0.7-0.7,1.9-0.7,2.6,0
		c16.1,16.1,31,16.1,47.1,0c0.7-0.7,1.9-0.7,2.6,0c0.7,0.7,0.7,1.9,0,2.6C108.2,191,99.6,195.4,90.9,195.4z"/>
</g>
<g>
	<path class="st3" d="M94.1,74c3.2,2.9,7.3,4.6,12,4.9c11.7,0.9,26-6.4,37.1-19c15.1-17,16.3-52.5,16.3-54l0.2-6l-5.9,0.9
		c-1.5,0.2-36.4,5.5-51.4,22.3C86.3,41.4,82.6,63.7,94.1,74z M106.2,26.5c14-15.7,48.4-20.7,48.4-20.7s-1.1,35-15.1,50.8
		c-14,15.8-32.8,22-42.1,13.7C88.2,62,92.2,42.2,106.2,26.5z"/>
	<g>
		<path class="st4" d="M106.2,26.5c14-15.7,48.4-20.7,48.4-20.7s-1.1,35-15.1,50.8c-14,15.8-32.8,22-42.1,13.7
			C88.2,62,92.2,42.2,106.2,26.5z"/>
		<path class="st5" d="M149.3,6.8c-0.3,5.7-2.4,35.6-15,49.8c-8.9,10-19.7,16.1-28.7,17.2c9.9,1.3,23.3-5.1,34-17.2
			c14-15.8,15.1-50.8,15.1-50.8S152.5,6.1,149.3,6.8z"/>
	</g>
</g>
<g>
	<path class="st3" d="M62.6,45.6l16,12c1.3,1,2.1,2.6,2.1,4.3l0,13.2c0,2.2,1.8,3.9,3.9,3.9l21.9,0c2.9,0,5.2-2.3,5.2-5.2l0-13.6
		c0-10.3-4.6-19.8-12.7-26.1l-17.2-13c-2-1.6-4.7-2.5-7.3-2.5c-0.5,0-1,0-1.5,0.1c-3.1,0.4-5.9,2-7.9,4.4l-1.8,2.1l0,0.3l-2.5,3.3
		C56.6,34,57.5,41.5,62.6,45.6z M64.6,31.9l3.5-4.7c0,0,0-0.1,0-0.1l0.7-0.8c1.1-1.5,2.8-2.4,4.7-2.7c1.8-0.2,3.7,0.3,5.2,1.4
		l17.2,12.9c6.8,5.3,10.8,13.5,10.8,22.1l0,13.8l-10.3,0l-10.7,0l0-12.1c0-3.2-1.5-6.3-4.1-8.3L65.7,41.7
		C62.7,39.3,62.2,34.9,64.6,31.9z"/>
	<path class="st6" d="M64.6,31.9l3.5-4.7c0,0,0-0.1,0-0.1l0.7-0.8c1.1-1.5,2.8-2.4,4.7-2.7c1.8-0.2,3.7,0.3,5.2,1.4l17.2,12.9
		c6.8,5.3,10.8,13.5,10.8,22.1l0,13.8l-10.3,0l-10.7,0l0-12.1c0-3.2-1.5-6.3-4.1-8.3L65.7,41.7C62.7,39.3,62.2,34.9,64.6,31.9z"/>
</g>
</svg>
