<?xml version="1.0" encoding="utf-8"?>
<!-- Generator: Adobe Illustrator 23.0.6, SVG Export Plug-In . SVG Version: 6.00 Build 0)  -->
<svg version="1.1" id="Capa_1" xmlns="http://www.w3.org/2000/svg" xmlns:xlink="http://www.w3.org/1999/xlink" x="0px" y="0px"
	 viewBox="0 0 24 24" style="enable-background:new 0 0 24 24;" xml:space="preserve">
<style type="text/css">
	.st0{fill:none;}
	.st1{fill:#313131;}
</style>
<path class="st0" d="M0,0h24v24H0V0z"/>
<path class="st1" d="M11,17.7c-0.4,0-0.7-0.3-0.7-0.7s0.3-0.7,0.7-0.7h2c0.4,0,0.7,0.3,0.7,0.7s-0.3,0.7-0.7,0.7H11z M7,12.7
	c-0.4,0-0.7-0.3-0.7-0.7s0.3-0.7,0.7-0.7h10c0.4,0,0.7,0.3,0.7,0.7s-0.3,0.7-0.7,0.7H7z M4,7.7C3.6,7.7,3.3,7.4,3.3,7S3.6,6.3,4,6.3
	h16c0.4,0,0.7,0.3,0.7,0.7S20.4,7.7,20,7.7H4z"/>
</svg>
