<?xml version="1.0" encoding="utf-8"?>
<!-- Generator: Adobe Illustrator 23.0.4, SVG Export Plug-In . SVG Version: 6.00 Build 0)  -->
<svg version="1.1" id="Capa_1" xmlns="http://www.w3.org/2000/svg" xmlns:xlink="http://www.w3.org/1999/xlink" x="0px" y="0px"
	 viewBox="0 0 24 24" style="enable-background:new 0 0 24 24;" xml:space="preserve">
<style type="text/css">
	.st0{fill:none;}
	.st1{fill:#313131;}
</style>
<path class="st0" d="M0,0h24v24H0V0z"/>
<path class="st1" d="M19.5,3.5l-1-1c-0.3-0.3-0.7-0.3-1,0l-1,1l-1-1c-0.3-0.3-0.7-0.3-1,0l-1,1l-1-1c-0.3-0.3-0.7-0.3-1,0l-1,1l-1-1
	c-0.3-0.3-0.7-0.3-1,0l-1,1l-1-1c-0.3-0.3-0.7-0.3-1,0l-1,1L3,2v20l1.5-1.5l1,1c0.3,0.3,0.7,0.3,1,0l1-1l1,1c0.3,0.3,0.7,0.3,1,0
	l1-1l1,1c0.3,0.3,0.7,0.3,1,0l1-1l1,1c0.3,0.3,0.7,0.3,1,0l1-1l1,1c0.3,0.3,0.7,0.3,1,0l1-1L21,22V2L19.5,3.5z M19,19.1H5V4.9h14
	V19.1z M6,15h12v2H6V15z M6,11h12v2H6V11z M6,7h12v2H6V7z"/>
</svg>
