<?xml version="1.0" encoding="utf-8"?>
<!-- Generator: Adobe Illustrator 23.0.4, SVG Export Plug-In . SVG Version: 6.00 Build 0)  -->
<svg version="1.1" id="Capa_1" xmlns="http://www.w3.org/2000/svg" xmlns:xlink="http://www.w3.org/1999/xlink" x="0px" y="0px"
	 viewBox="0 0 24 24" style="enable-background:new 0 0 24 24;" xml:space="preserve">
<style type="text/css">
	.st0{fill:none;}
	.st1{fill:#757575;}
</style>
<path class="st0" d="M0,0h24v24H0V0z"/>
<path class="st1" d="M19,4H5C4.4,4,4,4.4,4,5v0c0,0.6,0.4,1,1,1h14c0.6,0,1-0.4,1-1v0C20,4.4,19.6,4,19,4z"/>
<path class="st1" d="M19.4,7H4.6C4.2,7,4,7.2,3.9,7.6L3,12v2h1v6h10v-6h4v6h2v-6h1v-2l-0.9-4.4C20,7.2,19.8,7,19.4,7z M12,18H6v-4h6
	V18z M5,12l0.6-3h12.7l0.6,3H5z"/>
</svg>
