<?xml version="1.0" encoding="utf-8"?>
<!-- Generator: Adobe Illustrator 23.0.6, SVG Export Plug-In . SVG Version: 6.00 Build 0)  -->
<svg version="1.1" id="Capa_1" xmlns="http://www.w3.org/2000/svg" xmlns:xlink="http://www.w3.org/1999/xlink" x="0px" y="0px"
	 viewBox="0 0 24 24" style="enable-background:new 0 0 24 24;" xml:space="preserve">
<style type="text/css">
	.st0{fill:none;}
	.st1{fill:#D43030;}
</style>
<path class="st0" d="M0,0h24v24H0V0z"/>
<path class="st1" d="M5,5.7C4.6,5.7,4.3,5.4,4.3,5S4.6,4.3,5,4.3h14c0.4,0,0.7,0.3,0.7,0.7S19.4,5.7,19,5.7H5z"/>
<path class="st1" d="M18.3,19.7v-6h-4.6v6H4.3v-6h-1V12l0.9-4.3c0.1-0.3,0.2-0.4,0.4-0.4h14.8c0.2,0,0.3,0.1,0.4,0.4l0.9,4.4l0,1.6
	h-1v6H18.3z M5.7,18.3h6.6v-4.6H5.7V18.3z M4.6,12.3h14.6l-0.7-3.6H5.4L4.6,12.3z"/>
</svg>
