<?xml version="1.0" encoding="utf-8"?>
<!-- Generator: Adobe Illustrator 23.0.6, SVG Export Plug-In . SVG Version: 6.00 Build 0)  -->
<svg version="1.1" id="Capa_1" xmlns="http://www.w3.org/2000/svg" xmlns:xlink="http://www.w3.org/1999/xlink" x="0px" y="0px"
	 viewBox="0 0 24 24" style="enable-background:new 0 0 24 24;" xml:space="preserve">
<style type="text/css">
	.st0{fill:none;}
	.st1{fill:#D43030;}
</style>
<path class="st0" d="M0,0h24v24H0V0z"/>
<path class="st1" d="M18,19.7c-1.5,0-2.7-1.2-2.7-2.7v-0.3H8.7V17c0,1.5-1.2,2.7-2.7,2.7S3.3,18.5,3.3,17v-0.3H3
	c-0.9,0-1.7-0.8-1.7-1.7V6c0-0.9,0.8-1.7,1.7-1.7h12c0.9,0,1.7,0.8,1.7,1.7v2.3h3.1l2.9,3.8v4.2c0,0.2-0.2,0.4-0.4,0.4h-1.6V17
	C20.7,18.5,19.5,19.7,18,19.7z M18,15.7c-0.7,0-1.3,0.6-1.3,1.3s0.6,1.3,1.3,1.3s1.3-0.6,1.3-1.3S18.7,15.7,18,15.7z M6,15.7
	c-0.8,0-1.3,0.7-1.3,1.3s0.5,1.3,1.3,1.3s1.3-0.7,1.3-1.3S6.8,15.7,6,15.7z M6,14.3c0.7,0,1.4,0.3,2,0.9l0.1,0.1h7.2V5.7H2.7v9.6
	h1.2L4,15.2C4.5,14.6,5.2,14.3,6,14.3z M16.7,12.3h5.4l-2.5-3.1h-2.9V12.3z"/>
</svg>
