<?xml version="1.0" encoding="utf-8"?>
<!-- Generator: Adobe Illustrator 23.0.4, SVG Export Plug-In . SVG Version: 6.00 Build 0)  -->
<svg version="1.1" id="Capa_1" xmlns="http://www.w3.org/2000/svg" xmlns:xlink="http://www.w3.org/1999/xlink" x="0px" y="0px"
	 viewBox="0 0 24 24" style="enable-background:new 0 0 24 24;" xml:space="preserve">
<style type="text/css">
	.st0{fill:none;}
	.st1{fill:#5A2ED4;}
</style>
<path class="st0" d="M0,0h24v24H0V0z"/>
<path class="st1" d="M4.7,12.7L4.7,12.7c0.4,0.4,1,0.4,1.4,0L11,7.8V19c0,0.6,0.4,1,1,1h0c0.6,0,1-0.4,1-1V7.8l4.9,4.9
	c0.4,0.4,1,0.4,1.4,0l0,0c0.4-0.4,0.4-1,0-1.4L12,4l-7.3,7.3C4.3,11.7,4.3,12.3,4.7,12.7z"/>
</svg>
