<?xml version="1.0" encoding="utf-8"?>
<!-- Generator: Adobe Illustrator 23.0.4, SVG Export Plug-In . SVG Version: 6.00 Build 0)  -->
<svg version="1.1" id="Capa_1" xmlns="http://www.w3.org/2000/svg" xmlns:xlink="http://www.w3.org/1999/xlink" x="0px" y="0px"
	 viewBox="0 0 24 24" style="enable-background:new 0 0 24 24;" xml:space="preserve">
<style type="text/css">
	.st0{fill:none;}
	.st1{fill:#757575;}
</style>
<path class="st0" d="M0,0h24v24H0V0z"/>
<path class="st1" d="M20,8h-3V6c0-1.1-0.9-2-2-2H3C1.9,4,1,4.9,1,6v9c0,1.1,0.9,2,2,2l0,0c0,1.7,1.3,3,3,3s3-1.3,3-3h6
	c0,1.7,1.3,3,3,3s3-1.3,3-3h1.3c0.4,0,0.7-0.3,0.7-0.7V12L20,8z M19.5,9.5l2,2.5H17V9.5H19.5z M6,18c-0.6,0-1-0.5-1-1s0.4-1,1-1
	s1,0.5,1,1S6.6,18,6,18z M8.2,15c-0.6-0.6-1.3-1-2.2-1s-1.7,0.4-2.2,1H3V6h12v9H8.2z M18,18c-0.5,0-1-0.5-1-1s0.5-1,1-1s1,0.5,1,1
	S18.5,18,18,18z"/>
</svg>
