<?xml version="1.0" encoding="utf-8"?>
<!-- Generator: Adobe Illustrator 23.0.4, SVG Export Plug-In . SVG Version: 6.00 Build 0)  -->
<svg version="1.1" id="Capa_1" xmlns="http://www.w3.org/2000/svg" xmlns:xlink="http://www.w3.org/1999/xlink" x="0px" y="0px"
	 viewBox="0 0 24 24" style="enable-background:new 0 0 24 24;" xml:space="preserve">
<style type="text/css">
	.st0{fill:none;}
	.st1{fill:#FFFFFF;}
</style>
<path class="st0" d="M0,0h24v24H0V0z"/>
<path class="st1" d="M19,14v4h-2v-4H19 M7,14v4H6c-0.6,0-1-0.5-1-1v-3H7 M11.4,1C6.6,1.3,3,5.5,3,10.3l0,5.9C3,18.7,4.3,20,6,20h2.3
	C8.7,20,9,19.7,9,19.3v-6.6C9,12.3,8.7,12,8.3,12H5l0-1.7C5,6.5,8,3.1,11.8,3c4-0.1,7.2,3.1,7.2,7v2h-3.3c-0.4,0-0.7,0.3-0.7,0.7
	v6.6c0,0.4,0.3,0.7,0.7,0.7H19v1h-6c-0.6,0-1,0.4-1,1v0c0,0.6,0.4,1,1,1h5c1.7,0,3-1.3,3-3V10C21,4.8,16.6,0.7,11.4,1z"/>
</svg>
