<?xml version="1.0" encoding="utf-8"?>
<!-- Generator: Adobe Illustrator 23.0.4, SVG Export Plug-In . SVG Version: 6.00 Build 0)  -->
<svg version="1.1" id="Capa_1" xmlns="http://www.w3.org/2000/svg" xmlns:xlink="http://www.w3.org/1999/xlink" x="0px" y="0px"
	 viewBox="0 0 24 24" style="enable-background:new 0 0 24 24;" xml:space="preserve">
<style type="text/css">
	.st0{fill:none;}
	.st1{fill:#313131;}
</style>
<path class="st0" d="M0,0h24v24H0V0z"/>
<path class="st1" d="M12,2C8.1,2,5,5.1,5,9c0,4.4,4.8,10.5,6.5,12.4c0.3,0.3,0.8,0.3,1.1,0c1.6-1.9,6.5-8,6.5-12.4
	C19,5.1,15.9,2,12,2z M7,9c0-2.8,2.2-5,5-5s5,2.2,5,5c0,2.6-2.4,6.5-4.4,9.1c-0.3,0.4-0.8,0.4-1.1,0C9.4,15.5,7,11.6,7,9z"/>
<circle class="st1" cx="12" cy="9" r="2.5"/>
</svg>
