<?xml version="1.0" encoding="utf-8"?>
<!-- Generator: Adobe Illustrator 23.0.6, SVG Export Plug-In . SVG Version: 6.00 Build 0)  -->
<svg version="1.1" id="Capa_1" xmlns="http://www.w3.org/2000/svg" xmlns:xlink="http://www.w3.org/1999/xlink" x="0px" y="0px"
	 viewBox="0 0 24 24" style="enable-background:new 0 0 24 24;" xml:space="preserve">
<style type="text/css">
	.st0{fill:none;}
	.st1{fill:#D43030;}
	.st2{fill:#FFFFFF;}
</style>
<rect class="st0" width="24" height="24"/>
<path class="st1" d="M4,19.7c-0.9,0-1.7-0.8-1.7-1.7V6c0-0.9,0.8-1.7,1.7-1.7h16c0.9,0,1.7,0.8,1.7,1.7v12c0,0.9-0.8,1.7-1.7,1.7H4z
	 M3.7,18.3h16.6v-6.6H3.7V18.3z M3.7,8.3h16.6V5.7H3.7V8.3z"/>
<g>
	<circle class="st1" cx="18" cy="16" r="5"/>
	<polygon class="st2" points="20.3,13.8 17,17.1 15.7,15.8 15,16.5 17,18.5 21,14.5 	"/>
</g>
</svg>
