<?xml version="1.0" encoding="utf-8"?>
<!-- Generator: Adobe Illustrator 23.0.4, SVG Export Plug-In . SVG Version: 6.00 Build 0)  -->
<svg version="1.1" id="Capa_1" xmlns="http://www.w3.org/2000/svg" xmlns:xlink="http://www.w3.org/1999/xlink" x="0px" y="0px"
	 viewBox="0 0 24 24" style="enable-background:new 0 0 24 24;" xml:space="preserve">
<style type="text/css">
	.st0{fill:#FFFFFF;}
	.st1{fill:#757575;}
</style>
<rect class="st0" width="24" height="24"/>
<path d="M20.9,21.2"/>
<path class="st1" d="M19.2,5.3H17c0-2.8-2.2-5-5-5s-5,2.2-5,5H4.8C4.5,5.3,4.2,5.6,4.1,6L2.9,20l0,0.1c0,2,1.8,3.6,4,3.6h10.3
	c2.2,0,4-1.6,4-3.6l0-0.1L19.9,6C19.8,5.6,19.5,5.3,19.2,5.3z M12,2.3c1.7,0,3,1.3,3,3H9C9,3.7,10.3,2.3,12,2.3z M17.2,21.7H6.9
	c-1.1,0-2-0.7-2-1.6L6,7.3h1h10h1l1.1,12.8C19.1,21,18.2,21.7,17.2,21.7z"/>
<g>
	<circle class="st1" cx="18" cy="16" r="5"/>
	<polygon class="st0" points="20.3,13.8 17,17.1 15.7,15.8 15,16.5 17,18.5 21,14.5 	"/>
</g>
</svg>
