<?xml version="1.0" encoding="utf-8"?>
<!-- Generator: Adobe Illustrator 23.0.4, SVG Export Plug-In . SVG Version: 6.00 Build 0)  -->
<svg version="1.1" id="Capa_1" xmlns="http://www.w3.org/2000/svg" xmlns:xlink="http://www.w3.org/1999/xlink" x="0px" y="0px"
	 viewBox="0 0 24 24" style="enable-background:new 0 0 24 24;" xml:space="preserve">
<style type="text/css">
	.st0{fill:none;}
	.st1{fill:#A8D42E;}
</style>
<path class="st0" d="M0,0h24v24H0V0z"/>
<path class="st1" d="M11.4,3l-4.3,7c-0.2,0.4,0.1,1,0.6,1h8.5c0.5,0,0.9-0.6,0.6-1.1l-4.3-7C12.3,2.5,11.7,2.5,11.4,3z M12,5.8
	L13.9,9H10L12,5.8z"/>
<path class="st1" d="M17.5,13C15,13,13,15,13,17.5s2,4.5,4.5,4.5s4.5-2,4.5-4.5S20,13,17.5,13z M17.5,20c-1.4,0-2.5-1.1-2.5-2.5
	s1.1-2.5,2.5-2.5s2.5,1.1,2.5,2.5S18.9,20,17.5,20z"/>
<path class="st1" d="M3,14.2v6.6c0,0.4,0.3,0.7,0.7,0.7h6.6c0.4,0,0.7-0.3,0.7-0.7v-6.6c0-0.4-0.3-0.7-0.7-0.7H3.7
	C3.3,13.5,3,13.8,3,14.2z M9,19.5H5v-4h4V19.5z"/>
</svg>
