<?xml version="1.0" encoding="utf-8"?>
<!-- Generator: Adobe Illustrator 23.0.6, SVG Export Plug-In . SVG Version: 6.00 Build 0)  -->
<svg version="1.1" id="Capa_1" xmlns="http://www.w3.org/2000/svg" xmlns:xlink="http://www.w3.org/1999/xlink" x="0px" y="0px"
	 viewBox="0 0 24 24" style="enable-background:new 0 0 24 24;" xml:space="preserve">
<style type="text/css">
	.st0{fill:none;}
	.st1{fill:#757575;}
</style>
<path class="st0" d="M0,0h24v24H0V0z"/>
<path class="st1" d="M7.7,10.7c-0.2,0-0.2-0.1-0.3-0.2c-0.1-0.1-0.1-0.3,0-0.4l4.3-7C11.7,3,11.9,2.9,12,2.9c0.1,0,0.2,0,0.2,0.1
	l4.3,7c0.1,0.2,0,0.4,0,0.4c-0.1,0.1-0.2,0.2-0.3,0.2H7.7z M9.5,9.3h5L12,5.2L9.5,9.3z"/>
<path class="st1" d="M17.5,21.7c-2.3,0-4.2-1.9-4.2-4.2s1.9-4.2,4.2-4.2s4.2,1.9,4.2,4.2S19.8,21.7,17.5,21.7z M17.5,14.7
	c-1.6,0-2.8,1.2-2.8,2.8s1.2,2.8,2.8,2.8s2.8-1.2,2.8-2.8S19.1,14.7,17.5,14.7z"/>
<path class="st1" d="M3.7,21.2c-0.2,0-0.4-0.2-0.4-0.4v-6.6c0-0.2,0.2-0.4,0.4-0.4h6.6c0.2,0,0.4,0.2,0.4,0.4v6.6
	c0,0.2-0.2,0.4-0.4,0.4H3.7z M4.7,19.8h4.6v-4.6H4.7V19.8z"/>
</svg>
