<?xml version="1.0" encoding="utf-8"?>
<!-- Generator: Adobe Illustrator 23.0.4, SVG Export Plug-In . SVG Version: 6.00 Build 0)  -->
<svg version="1.1" id="Capa_1" xmlns="http://www.w3.org/2000/svg" xmlns:xlink="http://www.w3.org/1999/xlink" x="0px" y="0px"
	 viewBox="0 0 24 24" style="enable-background:new 0 0 24 24;" xml:space="preserve">
<style type="text/css">
	.st0{fill:none;}
	.st1{fill:#A8D42E;}
</style>
<path class="st0" d="M0,0h24v24H0V0z"/>
<path class="st1" d="M12,5.7l5,4.5V18h-2v-5.3c0-0.4-0.3-0.7-0.7-0.7H9.7C9.3,12,9,12.3,9,12.7V18H7v-7.8L12,5.7 M11.5,3.4l-8.2,7.4
	C2.9,11.2,3.2,12,3.8,12H5v7.3C5,19.7,5.3,20,5.7,20h4.6c0.4,0,0.7-0.3,0.7-0.7V14h2v5.3c0,0.4,0.3,0.7,0.7,0.7h4.6
	c0.4,0,0.7-0.3,0.7-0.7V12h1.2c0.6,0,0.9-0.8,0.5-1.2l-8.2-7.4C12.2,3.2,11.8,3.2,11.5,3.4z"/>
</svg>
