<?xml version="1.0" encoding="utf-8"?>
<!-- Generator: Adobe Illustrator 23.0.4, SVG Export Plug-In . SVG Version: 6.00 Build 0)  -->
<svg version="1.1" id="Capa_1" xmlns="http://www.w3.org/2000/svg" xmlns:xlink="http://www.w3.org/1999/xlink" x="0px" y="0px"
	 viewBox="0 0 24 24" style="enable-background:new 0 0 24 24;" xml:space="preserve">
<style type="text/css">
	.st0{fill:none;}
	.st1{fill:#313131;}
</style>
<path class="st0" d="M0,0h24v24H0V0z"/>
<path class="st1" d="M11,18h2v-2h-2V18z M13.7,2.1C6.9,1,1,6.9,2.1,13.7c0.7,4.1,4,7.5,8.2,8.2C17.1,23,23,17.1,21.9,10.3
	C21.2,6.2,17.8,2.8,13.7,2.1z M13.6,19.8c-5.6,1.1-10.5-3.8-9.4-9.4c0.6-3.1,3.1-5.7,6.3-6.3c5.6-1.1,10.5,3.8,9.4,9.4
	C19.2,16.7,16.7,19.2,13.6,19.8z M12.6,6C10.1,5.7,8,7.6,8,10h2c0-1.2,1.1-2.2,2.4-2c1,0.2,1.6,1.1,1.6,2.1c-0.1,1.8-3,1.7-3,4.9h2
	c0-2.4,3.4-2.5,3-5.5C15.7,7.8,14.3,6.3,12.6,6z"/>
</svg>
