<?xml version="1.0" encoding="utf-8"?>
<!-- Generator: Adobe Illustrator 23.0.4, SVG Export Plug-In . SVG Version: 6.00 Build 0)  -->
<svg version="1.1" id="Capa_1" xmlns="http://www.w3.org/2000/svg" xmlns:xlink="http://www.w3.org/1999/xlink" x="0px" y="0px"
	 viewBox="0 0 24 24" style="enable-background:new 0 0 24 24;" xml:space="preserve">
<style type="text/css">
	.st0{fill:none;}
	.st1{fill:#757575;}
</style>
<path class="st0" d="M0,0h24v24H0V0z"/>
<path class="st1" d="M16.5,13c0.7,0,1.4-0.4,1.7-1l3.6-6.5C22.2,4.8,21.8,4,21,4H6.2L5.5,2.4C5.3,2.2,5.1,2,4.8,2H3C2.4,2,2,2.4,2,3
	v0c0,0.6,0.4,1,1,1h1l3.6,7.6L6.2,14c-0.7,1.3,0.2,3,1.8,3h11c0.6,0,1-0.4,1-1v0c0-0.6-0.4-1-1-1H8l1.1-2H16.5z M7.2,6h12.1l-2.8,5
	h-7L7.2,6z M8,18c-1.1,0-2,0.9-2,2s0.9,2,2,2s2-0.9,2-2S9.1,18,8,18z M18,18c-1.1,0-2,0.9-2,2s0.9,2,2,2s2-0.9,2-2S19.1,18,18,18z"
	/>
</svg>
