<?xml version="1.0" encoding="utf-8"?>
<!-- Generator: Adobe Illustrator 23.0.6, SVG Export Plug-In . SVG Version: 6.00 Build 0)  -->
<svg version="1.1" id="Capa_1" xmlns="http://www.w3.org/2000/svg" xmlns:xlink="http://www.w3.org/1999/xlink" x="0px" y="0px"
	 viewBox="0 0 24 24" style="enable-background:new 0 0 24 24;" xml:space="preserve">
<style type="text/css">
	.st0{fill:#FFFFFF;}
	.st1{fill:#D43030;}
</style>
<rect class="st0" width="24" height="24"/>
<path d="M20.9,21.2"/>
<path class="st1" d="M6.9,23.4c-2,0-3.7-1.5-3.7-3.3L4.4,6c0.1-0.2,0.3-0.4,0.4-0.4h2.5V5.3c0-2.6,2.1-4.7,4.7-4.7s4.7,2.1,4.7,4.7
	v0.3h2.5c0.1,0,0.3,0.2,0.4,0.5l1.3,14c0,1.9-1.7,3.4-3.7,3.4H6.9z M4.6,20.1c0,1.1,1,1.9,2.3,1.9h10.3c1.2,0,2.2-0.9,2.2-1.9
	L18.3,7H5.7L4.6,20.1z M12,2c-1.8,0-3.3,1.5-3.3,3.3v0.3h6.6V5.3C15.3,3.4,13.9,2,12,2z"/>
<g>
	<circle class="st1" cx="18" cy="16" r="5"/>
	<polygon class="st0" points="20.3,13.8 17,17.1 15.7,15.8 15,16.5 17,18.5 21,14.5 	"/>
</g>
</svg>
