<?xml version="1.0" encoding="utf-8"?>
<!-- Generator: Adobe Illustrator 23.0.6, SVG Export Plug-In . SVG Version: 6.00 Build 0)  -->
<svg version="1.1" id="Capa_1" xmlns="http://www.w3.org/2000/svg" xmlns:xlink="http://www.w3.org/1999/xlink" x="0px" y="0px"
	 viewBox="0 0 24 24" style="enable-background:new 0 0 24 24;" xml:space="preserve">
<style type="text/css">
	.st0{fill:none;}
	.st1{opacity:0.54;enable-background:new    ;}
</style>
<path class="st0" d="M0,0h24v24H0V0z"/>
<path class="st1" d="M12,21.7c-5.3,0-9.7-4.4-9.7-9.7S6.7,2.3,12,2.3s9.7,4.4,9.7,9.7S17.3,21.7,12,21.7z M12,16.2
	c-1.9,0-4.7,0.9-5.2,2l-0.1,0.2l0.2,0.1c1.4,1.2,3.1,1.8,5.1,1.8c2,0,3.7-0.6,5.1-1.8l0.2-0.1l-0.1-0.2C16.7,17.1,13.9,16.2,12,16.2
	z M12,14.8c1.4,0,4.8,0.6,6.2,2.2l0.2,0.3l0.2-0.3c1.1-1.4,1.7-3.2,1.7-5c0-4.6-3.7-8.3-8.3-8.3c-4.6,0-8.3,3.7-8.3,8.3
	c0,1.8,0.6,3.6,1.7,5l0.2,0.3L5.8,17C7.3,15.4,10.7,14.8,12,14.8z M12,12.7c-1.7,0-3.2-1.5-3.2-3.2s1.5-3.2,3.2-3.2s3.2,1.5,3.2,3.2
	S13.7,12.7,12,12.7z M12,7.7c-1,0-1.8,0.8-1.8,1.8s0.8,1.8,1.8,1.8s1.8-0.8,1.8-1.8S13,7.7,12,7.7z"/>
</svg>
