<?xml version="1.0" encoding="utf-8"?>
<!-- Generator: Adobe Illustrator 23.0.4, SVG Export Plug-In . SVG Version: 6.00 Build 0)  -->
<svg version="1.1" id="Capa_1" xmlns="http://www.w3.org/2000/svg" xmlns:xlink="http://www.w3.org/1999/xlink" x="0px" y="0px"
	 viewBox="0 0 24 24" style="enable-background:new 0 0 24 24;" xml:space="preserve">
<style type="text/css">
	.st0{fill:none;}
	.st1{fill:#313131;}
</style>
<rect class="st0" width="24" height="24"/>
<path class="st1" d="M17.6,9.4l-5-5.8c-0.3-0.3-0.8-0.3-1.1,0l-5,5.8L1,6.7C0.5,6.5-0.1,6.9,0,7.5l2.2,12.6c0.1,0.3,0.3,0.6,0.7,0.6
	h18.3c0.3,0,0.6-0.2,0.7-0.6L24,7.5c0.1-0.6-0.5-1-1-0.8L17.6,9.4z M20,18.7H4l-1.5-9l3.9,1.9c0.4,0.2,0.8,0.1,1.1-0.2L12,6l4.6,5.3
	c0.3,0.3,0.7,0.4,1.1,0.2l3.9-1.9L20,18.7z"/>
</svg>
