<?xml version="1.0" encoding="utf-8"?>
<!-- Generator: Adobe Illustrator 23.0.6, SVG Export Plug-In . SVG Version: 6.00 Build 0)  -->
<svg version="1.1" id="Capa_1" xmlns="http://www.w3.org/2000/svg" xmlns:xlink="http://www.w3.org/1999/xlink" x="0px" y="0px"
	 viewBox="0 0 24 24" style="enable-background:new 0 0 24 24;" xml:space="preserve">
<style type="text/css">
	.st0{fill:none;}
	.st1{fill:#A8D42E;}
</style>
<path class="st0" d="M0,0h24v24H0V0z"/>
<path class="st1" d="M13.7,19.7c-0.2,0-0.4-0.2-0.4-0.4v-5.6h-2.6v5.6c0,0.2-0.2,0.4-0.4,0.4H5.7c-0.2,0-0.4-0.2-0.4-0.4v-7.6H3.8
	c-0.2,0-0.3-0.2-0.3-0.3c-0.1-0.1-0.1-0.3,0.1-0.4l8.2-7.4c0.1,0,0.2-0.1,0.3-0.1s0.2,0,0.3,0.1l8.2,7.4c0.1,0.1,0.1,0.3,0,0.4
	c0,0.1-0.1,0.3-0.3,0.3h-1.5v7.6c0,0.2-0.2,0.4-0.4,0.4H13.7z M14.3,12.3c0.2,0,0.4,0.2,0.4,0.4v5.6h2.6v-8.2L12,5.3l-5.3,4.8v8.2
	h2.6v-5.6c0-0.2,0.2-0.4,0.4-0.4H14.3z"/>
</svg>
