<?xml version="1.0" encoding="utf-8"?>
<!-- Generator: Adobe Illustrator 23.0.6, SVG Export Plug-In . SVG Version: 6.00 Build 0)  -->
<svg version="1.1" id="Capa_1" xmlns="http://www.w3.org/2000/svg" xmlns:xlink="http://www.w3.org/1999/xlink" x="0px" y="0px"
	 viewBox="0 0 24 24" style="enable-background:new 0 0 24 24;" xml:space="preserve">
<style type="text/css">
	.st0{fill:none;}
	.st1{fill:#757575;}
</style>
<path class="st0" d="M0,0h24v24H0V0z"/>
<path class="st1" d="M18,21.7c-0.9,0-1.7-0.8-1.7-1.7s0.8-1.7,1.7-1.7s1.7,0.8,1.7,1.7S18.9,21.7,18,21.7z M8,21.7
	c-0.9,0-1.7-0.8-1.7-1.7s0.8-1.7,1.7-1.7s1.7,0.8,1.7,1.7S8.9,21.7,8,21.7z M8,16.7c-0.6,0-1.2-0.3-1.5-0.8c-0.3-0.5-0.3-1.2,0-1.7
	l1.5-2.5L4.2,3.7H3C2.6,3.7,2.3,3.4,2.3,3S2.6,2.3,3,2.3h1.8c0.2,0,0.3,0.1,0.4,0.3L6,4.3h15c0.3,0,0.5,0.1,0.6,0.3
	c0.1,0.2,0.1,0.5,0,0.7l-3.6,6.5c-0.3,0.5-0.8,0.8-1.4,0.8H8.9l-1.4,2.6H19c0.4,0,0.7,0.3,0.7,0.7s-0.3,0.7-0.7,0.7H8z M9.3,11.3
	h7.4l3.1-5.6H6.7L9.3,11.3z"/>
</svg>
