<?xml version="1.0" encoding="utf-8"?>
<!-- Generator: Adobe Illustrator 23.0.6, SVG Export Plug-In . SVG Version: 6.00 Build 0)  -->
<svg version="1.1" id="Capa_1" xmlns="http://www.w3.org/2000/svg" xmlns:xlink="http://www.w3.org/1999/xlink" x="0px" y="0px"
	 viewBox="0 0 24 24" style="enable-background:new 0 0 24 24;" xml:space="preserve">
<style type="text/css">
	.st0{fill:none;}
	.st1{fill:#313131;}
</style>
<path class="st0" d="M0,0h24v24H0V0z"/>
<path class="st1" d="M4.5,11h3c0.6,0,1-0.4,1-1V6c0-0.6-0.4-1-1-1h-3c-0.6,0-1,0.4-1,1v4C3.5,10.6,3.9,11,4.5,11z M4.5,18h3
	c0.6,0,1-0.5,1-1v-4c0-0.6-0.4-1-1-1h-3c-0.6,0-1,0.4-1,1v4C3.5,17.5,3.9,18,4.5,18z M10.5,18h3c0.6,0,1-0.5,1-1v-4c0-0.6-0.4-1-1-1
	h-3c-0.6,0-1,0.4-1,1v4C9.5,17.5,9.9,18,10.5,18z M16.5,18h3c0.5,0,1-0.5,1-1v-4c0-0.6-0.5-1-1-1h-3c-0.5,0-1,0.4-1,1v4
	C15.5,17.5,16,18,16.5,18z M10.5,11h3c0.6,0,1-0.4,1-1V6c0-0.6-0.4-1-1-1h-3c-0.6,0-1,0.4-1,1v4C9.5,10.6,9.9,11,10.5,11z M15.5,6v4
	c0,0.6,0.5,1,1,1h3c0.5,0,1-0.4,1-1V6c0-0.6-0.5-1-1-1h-3C16,5,15.5,5.4,15.5,6z"/>
</svg>
