<?xml version="1.0" encoding="utf-8"?>
<!-- Generator: Adobe Illustrator 23.0.4, SVG Export Plug-In . SVG Version: 6.00 Build 0)  -->
<svg version="1.1" id="Capa_1" xmlns="http://www.w3.org/2000/svg" xmlns:xlink="http://www.w3.org/1999/xlink" x="0px" y="0px"
	 viewBox="0 0 24 24" style="enable-background:new 0 0 24 24;" xml:space="preserve">
<style type="text/css">
	.st0{fill:none;}
	.st1{fill:#313131;}
</style>
<path class="st0" d="M0,0h24v24H0V0z"/>
<path class="st1" d="M6.4,9.2h0.2C7.4,9.2,8,9.8,8,10.6v7C8,18.4,7.4,19,6.6,19H6.4C5.6,19,5,18.4,5,17.6v-7C5,9.8,5.6,9.2,6.4,9.2z
	 M12,5c0.8,0,1.4,0.6,1.4,1.4v11.2c0,0.8-0.6,1.4-1.4,1.4c-0.8,0-1.4-0.6-1.4-1.4V6.4C10.6,5.6,11.2,5,12,5z M17.6,13
	c0.8,0,1.4,0.6,1.4,1.4v3.2c0,0.8-0.6,1.4-1.4,1.4s-1.4-0.6-1.4-1.4v-3.2C16.2,13.6,16.8,13,17.6,13z"/>
</svg>
