<?xml version="1.0" encoding="utf-8"?>
<!-- Generator: Adobe Illustrator 23.0.4, SVG Export Plug-In . SVG Version: 6.00 Build 0)  -->
<svg version="1.1" id="Capa_1" xmlns="http://www.w3.org/2000/svg" xmlns:xlink="http://www.w3.org/1999/xlink" x="0px" y="0px"
	 viewBox="0 0 24 24" style="enable-background:new 0 0 24 24;" xml:space="preserve">
<style type="text/css">
	.st0{fill:none;}
	.st1{fill:#313131;}
</style>
<path class="st0" d="M0,0h24v24H0V0z"/>
<path class="st1" d="M19.7,4C17,2.2,13.8,3,12,5.1C10.2,3,7,2.2,4.3,4C2.9,5,2.1,6.6,2,8.3c-0.1,3.9,3.3,7,8.6,11.8l0.1,0.1
	c0.8,0.7,1.9,0.7,2.7,0l0.1-0.1c5.3-4.8,8.7-7.9,8.6-11.8C21.9,6.6,21.1,5,19.7,4z M12.1,18.5L12,18.6l-0.1-0.1
	C7.1,14.2,4,11.4,4,8.5C4,6.5,5.5,5,7.5,5c1.5,0,3,1,3.6,2.4H13C13.5,6,15,5,16.5,5c2,0,3.5,1.5,3.5,3.5
	C20,11.4,16.9,14.2,12.1,18.5z"/>
</svg>
