<?xml version="1.0" encoding="utf-8"?>
<!-- Generator: Adobe Illustrator 23.0.6, SVG Export Plug-In . SVG Version: 6.00 Build 0)  -->
<svg version="1.1" id="Capa_1" xmlns="http://www.w3.org/2000/svg" xmlns:xlink="http://www.w3.org/1999/xlink" x="0px" y="0px"
	 viewBox="0 0 24 24" style="enable-background:new 0 0 24 24;" xml:space="preserve">
<style type="text/css">
	.st0{fill:none;}
	.st1{fill:#9E9E9E;}
</style>
<path class="st0" d="M0,0h24v24H0V0z"/>
<path class="st1" d="M18.8,19.9c-0.2,0-0.4-0.1-0.5-0.2l-5.2-5.2l-0.2,0.1c-1.2,0.7-2.4,1.1-3.7,1.1c-0.3,0-0.7,0-1-0.1
	c-2.6-0.5-4.8-2.7-5.1-5.3C3,8.5,3.5,6.8,4.7,5.4c1.2-1.3,2.9-2.1,4.7-2.1c0.3,0,0.5,0,0.8,0c2.7,0.3,4.9,2.4,5.3,5.1
	c0.3,1.7-0.1,3.4-1,4.7l-0.2,0.2l5.2,5.2c0.2,0.1,0.3,0.3,0.3,0.4c0,0.2-0.1,0.5-0.4,0.7C19.3,19.8,19.1,19.9,18.8,19.9z M9.5,4.7
	c-2.6,0-4.8,2.2-4.8,4.8c0,2.6,2.2,4.8,4.8,4.8c2.6,0,4.8-2.2,4.8-4.8C14.3,6.9,12.1,4.7,9.5,4.7z"/>
</svg>
