<?xml version="1.0" encoding="utf-8"?>
<!-- Generator: Adobe Illustrator 23.0.6, SVG Export Plug-In . SVG Version: 6.00 Build 0)  -->
<svg version="1.1" id="Capa_1" xmlns="http://www.w3.org/2000/svg" xmlns:xlink="http://www.w3.org/1999/xlink" x="0px" y="0px"
	 viewBox="0 0 24 24" style="enable-background:new 0 0 24 24;" xml:space="preserve">
<style type="text/css">
	.st0{fill:none;}
	.st1{fill:#313131;}
</style>
<path class="st0" d="M0,0h24v24H0V0z"/>
<path class="st1" d="M4.5,14h2c0.6,0,1-0.4,1-1v-2c0-0.6-0.4-1-1-1h-2c-0.5,0-1,0.4-1,1v2C3.5,13.6,4,14,4.5,14z M4.5,19h2
	c0.6,0,1-0.5,1-1v-2c0-0.6-0.4-1-1-1h-2c-0.5,0-1,0.4-1,1v2C3.5,18.5,4,19,4.5,19z M4.5,9h2c0.6,0,1-0.4,1-1V6c0-0.6-0.4-1-1-1h-2
	c-0.5,0-1,0.4-1,1v2C3.5,8.6,4,9,4.5,9z M9.5,14h10c0.5,0,1-0.4,1-1v-2c0-0.6-0.5-1-1-1h-10c-0.6,0-1,0.4-1,1v2
	C8.5,13.6,8.9,14,9.5,14z M9.5,19h10c0.5,0,1-0.5,1-1v-2c0-0.6-0.5-1-1-1h-10c-0.6,0-1,0.4-1,1v2C8.5,18.5,8.9,19,9.5,19z M8.5,6v2
	c0,0.6,0.4,1,1,1h10c0.5,0,1-0.4,1-1V6c0-0.6-0.5-1-1-1h-10C8.9,5,8.5,5.4,8.5,6z"/>
</svg>
