<?xml version="1.0" encoding="utf-8"?>
<!-- Generator: Adobe Illustrator 23.0.4, SVG Export Plug-In . SVG Version: 6.00 Build 0)  -->
<svg version="1.1" id="Capa_1" xmlns="http://www.w3.org/2000/svg" xmlns:xlink="http://www.w3.org/1999/xlink" x="0px" y="0px"
	 viewBox="0 0 24 24" style="enable-background:new 0 0 24 24;" xml:space="preserve">
<style type="text/css">
	.st0{fill:none;}
	.st1{fill:#313131;}
</style>
<path class="st0" d="M0,0h24v24H0V0z"/>
<path class="st1" d="M19.7,18.3l-5-5c1-1.3,1.4-3.1,1.1-4.9c-0.5-2.8-2.8-5-5.6-5.3c-4.2-0.5-7.8,3-7.3,7.3c0.3,2.8,2.6,5.1,5.3,5.6
	c1.8,0.3,3.5-0.2,4.9-1.1l5,5c0.4,0.4,1.1,0.4,1.5,0C20.2,19.3,20.2,18.7,19.7,18.3z M9.5,14C7,14,5,12,5,9.5S7,5,9.5,5S14,7,14,9.5
	S12,14,9.5,14z"/>
</svg>
