<?xml version="1.0" encoding="utf-8"?>
<!-- Generator: Adobe Illustrator 23.0.6, SVG Export Plug-In . SVG Version: 6.00 Build 0)  -->
<svg version="1.1" id="Capa_1" xmlns="http://www.w3.org/2000/svg" xmlns:xlink="http://www.w3.org/1999/xlink" x="0px" y="0px"
	 viewBox="0 0 24 24" style="enable-background:new 0 0 24 24;" xml:space="preserve">
<style type="text/css">
	.st0{fill:none;}
	.st1{fill:#A8D42E;}
</style>
<path class="st0" d="M0,0h24v24H0V0z"/>
<path class="st1" d="M4.5,11.5h3c0.6,0,1-0.4,1-1v-4c0-0.6-0.4-1-1-1h-3c-0.6,0-1,0.4-1,1v4C3.5,11.1,3.9,11.5,4.5,11.5z M4.5,18.5
	h3c0.6,0,1-0.5,1-1v-4c0-0.6-0.4-1-1-1h-3c-0.6,0-1,0.4-1,1v4C3.5,18,3.9,18.5,4.5,18.5z M10.5,18.5h3c0.6,0,1-0.5,1-1v-4
	c0-0.6-0.4-1-1-1h-3c-0.6,0-1,0.4-1,1v4C9.5,18,9.9,18.5,10.5,18.5z M16.5,18.5h3c0.5,0,1-0.5,1-1v-4c0-0.6-0.5-1-1-1h-3
	c-0.5,0-1,0.4-1,1v4C15.5,18,16,18.5,16.5,18.5z M10.5,11.5h3c0.6,0,1-0.4,1-1v-4c0-0.6-0.4-1-1-1h-3c-0.6,0-1,0.4-1,1v4
	C9.5,11.1,9.9,11.5,10.5,11.5z M15.5,6.5v4c0,0.6,0.5,1,1,1h3c0.5,0,1-0.4,1-1v-4c0-0.6-0.5-1-1-1h-3C16,5.5,15.5,5.9,15.5,6.5z"/>
</svg>
