<?xml version="1.0" standalone="no"?>
<!DOCTYPE svg PUBLIC "-//W3C//DTD SVG 1.1//EN" "http://www.w3.org/Graphics/SVG/1.1/DTD/svg11.dtd" >
<!--
2013-9-30: Created.
-->
<svg>
<metadata>
Created by iconfont
</metadata>
<defs>

<font id="iconfont" horiz-adv-x="1024" >
  <font-face
    font-family="iconfont"
    font-weight="500"
    font-stretch="normal"
    units-per-em="1024"
    ascent="896"
    descent="-128"
  />
    <missing-glyph />
    
    <glyph glyph-name="round-location_on-px" unicode="&#58888;" d="M512 810.666667C346.88 810.666667 213.333333 677.12 213.333333 512c0-177.92 188.586667-423.253333 266.24-516.693333 17.066667-20.48 48.213333-20.48 65.28 0C622.08 88.746667 810.666667 334.08 810.666667 512c0 165.12-133.546667 298.666667-298.666667 298.666667z m0-405.333334a106.666667 106.666667 0 0 0 0 213.333334 106.666667 106.666667 0 0 0 0-213.333334z"  horiz-adv-x="1024" />

    
    <glyph glyph-name="round-menu-px" unicode="&#58889;" d="M170.666667 128h682.666666c21.333333 0 42.666667 21.333333 42.666667 42.666667s-21.333333 42.666667-42.666667 42.666666H170.666667c-21.333333 0-42.666667-21.333333-42.666667-42.666666s21.333333-42.666667 42.666667-42.666667z m0 213.333333h682.666666c21.333333 0 42.666667 17.066667 42.666667 42.666667s-21.333333 42.666667-42.666667 42.666667H170.666667c-21.333333 0-42.666667-17.066667-42.666667-42.666667s21.333333-42.666667 42.666667-42.666667zM128 597.333333c0-25.6 21.333333-42.666667 42.666667-42.666666h682.666666c21.333333 0 42.666667 17.066667 42.666667 42.666666s-21.333333 42.666667-42.666667 42.666667H170.666667c-21.333333 0-42.666667-17.066667-42.666667-42.666667z"  horiz-adv-x="1024" />

    
    <glyph glyph-name="round-remove-px" unicode="&#58890;" d="M768 341.333333H256c-25.6 0-42.666667 17.066667-42.666667 42.666667s17.066667 42.666667 42.666667 42.666667h512c21.333333 0 42.666667-17.066667 42.666667-42.666667s-21.333333-42.666667-42.666667-42.666667z"  horiz-adv-x="1024" />

    
    <glyph glyph-name="round-search-px" unicode="&#58891;" d="M840.533333 115.2l-213.333333 213.333333c42.666667 55.466667 59.733333 132.266667 46.933333 209.066667-21.333333 119.466667-119.466667 213.333333-238.933333 226.133333-179.2 21.333333-332.8-128-311.466667-311.466666 12.8-119.466667 110.933333-217.6 226.133334-238.933334 76.8-12.8 149.333333 8.533333 209.066666 46.933334l213.333334-213.333334c17.066667-17.066667 46.933333-17.066667 64 0 25.6 25.6 25.6 51.2 4.266666 68.266667zM405.333333 298.666667C298.666667 298.666667 213.333333 384 213.333333 490.666667S298.666667 682.666667 405.333333 682.666667 597.333333 597.333333 597.333333 490.666667 512 298.666667 405.333333 298.666667z"  horiz-adv-x="1024" />

    
    <glyph glyph-name="round-search-px1" unicode="&#58892;" d="M840.533333 115.2l-213.333333 213.333333c42.666667 55.466667 59.733333 132.266667 46.933333 209.066667-21.333333 119.466667-119.466667 213.333333-238.933333 226.133333-179.2 21.333333-332.8-128-311.466667-311.466666 12.8-119.466667 110.933333-217.6 226.133334-238.933334 76.8-12.8 149.333333 8.533333 209.066666 46.933334l213.333334-213.333334c17.066667-17.066667 46.933333-17.066667 64 0 25.6 25.6 25.6 51.2 4.266666 68.266667zM405.333333 298.666667C298.666667 298.666667 213.333333 384 213.333333 490.666667S298.666667 682.666667 405.333333 682.666667 597.333333 597.333333 597.333333 490.666667 512 298.666667 405.333333 298.666667z"  horiz-adv-x="1024" />

    
    <glyph glyph-name="round-search-px2" unicode="&#58893;" d="M840.533333 115.2l-213.333333 213.333333c42.666667 55.466667 59.733333 132.266667 46.933333 209.066667-21.333333 119.466667-119.466667 213.333333-238.933333 226.133333-179.2 21.333333-332.8-128-311.466667-311.466666 12.8-119.466667 110.933333-217.6 226.133334-238.933334 76.8-12.8 149.333333 8.533333 209.066666 46.933334l213.333334-213.333334c17.066667-17.066667 46.933333-17.066667 64 0 25.6 25.6 25.6 51.2 4.266666 68.266667zM405.333333 298.666667C298.666667 298.666667 213.333333 384 213.333333 490.666667S298.666667 682.666667 405.333333 682.666667 597.333333 597.333333 597.333333 490.666667 512 298.666667 405.333333 298.666667z"  horiz-adv-x="1024" />

    
    <glyph glyph-name="round-view_module-px" unicode="&#58894;" d="M192 426.666667h128c25.6 0 42.666667 17.066667 42.666667 42.666666V640c0 25.6-17.066667 42.666667-42.666667 42.666667h-128c-25.6 0-42.666667-17.066667-42.666667-42.666667v-170.666667c0-25.6 17.066667-42.666667 42.666667-42.666666z m0-298.666667h128c25.6 0 42.666667 21.333333 42.666667 42.666667v170.666666c0 25.6-17.066667 42.666667-42.666667 42.666667h-128c-25.6 0-42.666667-17.066667-42.666667-42.666667v-170.666666c0-21.333333 17.066667-42.666667 42.666667-42.666667z m256 0h128c25.6 0 42.666667 21.333333 42.666667 42.666667v170.666666c0 25.6-17.066667 42.666667-42.666667 42.666667h-128c-25.6 0-42.666667-17.066667-42.666667-42.666667v-170.666666c0-21.333333 17.066667-42.666667 42.666667-42.666667z m256 0h128c21.333333 0 42.666667 21.333333 42.666667 42.666667v170.666666c0 25.6-21.333333 42.666667-42.666667 42.666667h-128c-21.333333 0-42.666667-17.066667-42.666667-42.666667v-170.666666c0-21.333333 21.333333-42.666667 42.666667-42.666667z m-256 298.666667h128c25.6 0 42.666667 17.066667 42.666667 42.666666V640c0 25.6-17.066667 42.666667-42.666667 42.666667h-128c-25.6 0-42.666667-17.066667-42.666667-42.666667v-170.666667c0-25.6 17.066667-42.666667 42.666667-42.666666z m213.333333 213.333333v-170.666667c0-25.6 21.333333-42.666667 42.666667-42.666666h128c21.333333 0 42.666667 17.066667 42.666667 42.666666V640c0 25.6-21.333333 42.666667-42.666667 42.666667h-128c-21.333333 0-42.666667-17.066667-42.666667-42.666667z"  horiz-adv-x="1024" />

    
    <glyph glyph-name="round-view_list-px" unicode="&#58895;" d="M192 298.666667h85.333333c25.6 0 42.666667 17.066667 42.666667 42.666666v85.333334c0 25.6-17.066667 42.666667-42.666667 42.666666h-85.333333c-21.333333 0-42.666667-17.066667-42.666667-42.666666v-85.333334c0-25.6 21.333333-42.666667 42.666667-42.666666z m0-213.333334h85.333333c25.6 0 42.666667 21.333333 42.666667 42.666667v85.333333c0 25.6-17.066667 42.666667-42.666667 42.666667h-85.333333c-21.333333 0-42.666667-17.066667-42.666667-42.666667v-85.333333c0-21.333333 21.333333-42.666667 42.666667-42.666667z m0 426.666667h85.333333c25.6 0 42.666667 17.066667 42.666667 42.666667V640c0 25.6-17.066667 42.666667-42.666667 42.666667h-85.333333c-21.333333 0-42.666667-17.066667-42.666667-42.666667v-85.333333c0-25.6 21.333333-42.666667 42.666667-42.666667z m213.333333-213.333333h426.666667c21.333333 0 42.666667 17.066667 42.666667 42.666666v85.333334c0 25.6-21.333333 42.666667-42.666667 42.666666h-426.666667c-25.6 0-42.666667-17.066667-42.666666-42.666666v-85.333334c0-25.6 17.066667-42.666667 42.666666-42.666666z m0-213.333334h426.666667c21.333333 0 42.666667 21.333333 42.666667 42.666667v85.333333c0 25.6-21.333333 42.666667-42.666667 42.666667h-426.666667c-25.6 0-42.666667-17.066667-42.666666-42.666667v-85.333333c0-21.333333 17.066667-42.666667 42.666666-42.666667z m-42.666666 554.666667v-85.333333c0-25.6 17.066667-42.666667 42.666666-42.666667h426.666667c21.333333 0 42.666667 17.066667 42.666667 42.666667V640c0 25.6-21.333333 42.666667-42.666667 42.666667h-426.666667c-25.6 0-42.666667-17.066667-42.666666-42.666667z"  horiz-adv-x="1024" />

    
    <glyph glyph-name="round-view_module-px-G" unicode="&#58896;" d="M192 405.333333h128c25.6 0 42.666667 17.066667 42.666667 42.666667v170.666667c0 25.6-17.066667 42.666667-42.666667 42.666666h-128c-25.6 0-42.666667-17.066667-42.666667-42.666666v-170.666667c0-25.6 17.066667-42.666667 42.666667-42.666667z m0-298.666666h128c25.6 0 42.666667 21.333333 42.666667 42.666666v170.666667c0 25.6-17.066667 42.666667-42.666667 42.666667h-128c-25.6 0-42.666667-17.066667-42.666667-42.666667v-170.666667c0-21.333333 17.066667-42.666667 42.666667-42.666666z m256 0h128c25.6 0 42.666667 21.333333 42.666667 42.666666v170.666667c0 25.6-17.066667 42.666667-42.666667 42.666667h-128c-25.6 0-42.666667-17.066667-42.666667-42.666667v-170.666667c0-21.333333 17.066667-42.666667 42.666667-42.666666z m256 0h128c21.333333 0 42.666667 21.333333 42.666667 42.666666v170.666667c0 25.6-21.333333 42.666667-42.666667 42.666667h-128c-21.333333 0-42.666667-17.066667-42.666667-42.666667v-170.666667c0-21.333333 21.333333-42.666667 42.666667-42.666666z m-256 298.666666h128c25.6 0 42.666667 17.066667 42.666667 42.666667v170.666667c0 25.6-17.066667 42.666667-42.666667 42.666666h-128c-25.6 0-42.666667-17.066667-42.666667-42.666666v-170.666667c0-25.6 17.066667-42.666667 42.666667-42.666667z m213.333333 213.333334v-170.666667c0-25.6 21.333333-42.666667 42.666667-42.666667h128c21.333333 0 42.666667 17.066667 42.666667 42.666667v170.666667c0 25.6-21.333333 42.666667-42.666667 42.666666h-128c-21.333333 0-42.666667-17.066667-42.666667-42.666666z"  horiz-adv-x="1024" />

    
    <glyph glyph-name="round-view_list-px-G" unicode="&#58897;" d="M192 298.666667h85.333333c25.6 0 42.666667 17.066667 42.666667 42.666666v85.333334c0 25.6-17.066667 42.666667-42.666667 42.666666h-85.333333c-21.333333 0-42.666667-17.066667-42.666667-42.666666v-85.333334c0-25.6 21.333333-42.666667 42.666667-42.666666z m0-213.333334h85.333333c25.6 0 42.666667 21.333333 42.666667 42.666667v85.333333c0 25.6-17.066667 42.666667-42.666667 42.666667h-85.333333c-21.333333 0-42.666667-17.066667-42.666667-42.666667v-85.333333c0-21.333333 21.333333-42.666667 42.666667-42.666667z m0 426.666667h85.333333c25.6 0 42.666667 17.066667 42.666667 42.666667V640c0 25.6-17.066667 42.666667-42.666667 42.666667h-85.333333c-21.333333 0-42.666667-17.066667-42.666667-42.666667v-85.333333c0-25.6 21.333333-42.666667 42.666667-42.666667z m213.333333-213.333333h426.666667c21.333333 0 42.666667 17.066667 42.666667 42.666666v85.333334c0 25.6-21.333333 42.666667-42.666667 42.666666h-426.666667c-25.6 0-42.666667-17.066667-42.666666-42.666666v-85.333334c0-25.6 17.066667-42.666667 42.666666-42.666666z m0-213.333334h426.666667c21.333333 0 42.666667 21.333333 42.666667 42.666667v85.333333c0 25.6-21.333333 42.666667-42.666667 42.666667h-426.666667c-25.6 0-42.666667-17.066667-42.666666-42.666667v-85.333333c0-21.333333 17.066667-42.666667 42.666666-42.666667z m-42.666666 554.666667v-85.333333c0-25.6 17.066667-42.666667 42.666666-42.666667h426.666667c21.333333 0 42.666667 17.066667 42.666667 42.666667V640c0 25.6-21.333333 42.666667-42.666667 42.666667h-426.666667c-25.6 0-42.666667-17.066667-42.666666-42.666667z"  horiz-adv-x="1024" />

    
    <glyph glyph-name="outline-account_balance_wallet-px" unicode="&#58898;" d="M896 584.533333V682.666667c0 46.933333-38.4 85.333333-85.333333 85.333333H213.333333c-46.933333 0-85.333333-38.4-85.333333-85.333333v-597.333334c0-46.933333 38.4-85.333333 85.333333-85.333333h597.333334c46.933333 0 85.333333 38.4 85.333333 85.333333v98.133334c25.6 17.066667 42.666667 42.666667 42.666667 72.533333V512c0 29.866667-17.066667 59.733333-42.666667 72.533333zM853.333333 512v-256h-298.666666V512h298.666666zM213.333333 85.333333V682.666667h597.333334v-85.333334h-256c-46.933333 0-85.333333-38.4-85.333334-85.333333v-256c0-46.933333 38.4-85.333333 85.333334-85.333333h256v-85.333334H213.333333zM682.666667 384m-64 0a64 64 0 1 1 128 0 64 64 0 1 1-128 0Z"  horiz-adv-x="1024" />

    
    <glyph glyph-name="Aproved_px" unicode="&#58899;" d="M456.533333 200.533333c-17.066667-17.066667-42.666667-17.066667-59.733333 0l-153.6 153.6c-17.066667 17.066667-17.066667 42.666667 0 59.733334s42.666667 17.066667 59.733333 0l123.733334-123.733334 294.4 294.4c17.066667 17.066667 42.666667 17.066667 59.733333 0s17.066667-42.666667 0-59.733333l-324.266667-324.266667zM512 896C230.4 896 0 665.6 0 384s230.4-512 512-512 512 230.4 512 512S793.6 896 512 896z m0-938.666667C277.333333-42.666667 85.333333 149.333333 85.333333 384S277.333333 810.666667 512 810.666667s426.666667-192 426.666667-426.666667-192-426.666667-426.666667-426.666667z"  horiz-adv-x="1024" />

    
    <glyph glyph-name="outline-account_circle-px-G" unicode="&#58900;" d="M512 810.666667C277.333333 810.666667 85.333333 618.666667 85.333333 384s192-426.666667 426.666667-426.666667 426.666667 192 426.666667 426.666667S746.666667 810.666667 512 810.666667zM302.933333 115.2c17.066667 38.4 128 76.8 209.066667 76.8s192-38.4 209.066667-76.8c-55.466667-46.933333-128-72.533333-209.066667-72.533333s-153.6 25.6-209.066667 72.533333z m482.133334 64c-59.733333 72.533333-209.066667 98.133333-273.066667 98.133333s-209.066667-25.6-273.066667-98.133333c-42.666667 55.466667-68.266667 128-68.266666 204.8 0 187.733333 153.6 341.333333 341.333333 341.333333s341.333333-153.6 341.333333-341.333333c0-76.8-25.6-149.333333-68.266666-204.8zM512 640c-81.066667 0-149.333333-68.266667-149.333333-149.333333S430.933333 341.333333 512 341.333333s149.333333 68.266667 149.333333 149.333334S593.066667 640 512 640z m0-213.333333c-34.133333 0-64 29.866667-64 64S477.866667 554.666667 512 554.666667s64-29.866667 64-64S546.133333 426.666667 512 426.666667zM512 810.666667C277.333333 810.666667 85.333333 618.666667 85.333333 384s192-426.666667 426.666667-426.666667 426.666667 192 426.666667 426.666667S746.666667 810.666667 512 810.666667zM302.933333 115.2c17.066667 38.4 128 76.8 209.066667 76.8s192-38.4 209.066667-76.8c-55.466667-46.933333-128-72.533333-209.066667-72.533333s-153.6 25.6-209.066667 72.533333z m482.133334 64c-59.733333 72.533333-209.066667 98.133333-273.066667 98.133333s-209.066667-25.6-273.066667-98.133333c-42.666667 55.466667-68.266667 128-68.266666 204.8 0 187.733333 153.6 341.333333 341.333333 341.333333s341.333333-153.6 341.333333-341.333333c0-76.8-25.6-149.333333-68.266666-204.8zM512 640c-81.066667 0-149.333333-68.266667-149.333333-149.333333S430.933333 341.333333 512 341.333333s149.333333 68.266667 149.333333 149.333334S593.066667 640 512 640z m0-213.333333c-34.133333 0-64 29.866667-64 64S477.866667 554.666667 512 554.666667s64-29.866667 64-64S546.133333 426.666667 512 426.666667z"  horiz-adv-x="1024" />

    
    <glyph glyph-name="outline-apps-px" unicode="&#58901;" d="M170.666667 554.666667h170.666666V725.333333H170.666667v-170.666666z m256-512h170.666666v170.666666h-170.666666v-170.666666z m-256 0h170.666666v170.666666H170.666667v-170.666666z m0 256h170.666666v170.666666H170.666667v-170.666666z m256 0h170.666666v170.666666h-170.666666v-170.666666z m256 426.666666v-170.666666h170.666666V725.333333h-170.666666z m-256-170.666666h170.666666V725.333333h-170.666666v-170.666666z m256-256h170.666666v170.666666h-170.666666v-170.666666z m0-256h170.666666v170.666666h-170.666666v-170.666666z"  horiz-adv-x="1024" />

    
    <glyph glyph-name="outline-account_circle-px" unicode="&#58902;" d="M512 810.666667C277.333333 810.666667 85.333333 618.666667 85.333333 384s192-426.666667 426.666667-426.666667 426.666667 192 426.666667 426.666667S746.666667 810.666667 512 810.666667zM302.933333 115.2c17.066667 38.4 128 76.8 209.066667 76.8s192-38.4 209.066667-76.8c-55.466667-46.933333-128-72.533333-209.066667-72.533333s-153.6 25.6-209.066667 72.533333z m482.133334 64c-59.733333 72.533333-209.066667 98.133333-273.066667 98.133333s-209.066667-25.6-273.066667-98.133333c-42.666667 55.466667-68.266667 128-68.266666 204.8 0 187.733333 153.6 341.333333 341.333333 341.333333s341.333333-153.6 341.333333-341.333333c0-76.8-25.6-149.333333-68.266666-204.8zM512 640c-81.066667 0-149.333333-68.266667-149.333333-149.333333S430.933333 341.333333 512 341.333333s149.333333 68.266667 149.333333 149.333334S593.066667 640 512 640z m0-213.333333c-34.133333 0-64 29.866667-64 64S477.866667 554.666667 512 554.666667s64-29.866667 64-64S546.133333 426.666667 512 426.666667zM512 810.666667C277.333333 810.666667 85.333333 618.666667 85.333333 384s192-426.666667 426.666667-426.666667 426.666667 192 426.666667 426.666667S746.666667 810.666667 512 810.666667zM302.933333 115.2c17.066667 38.4 128 76.8 209.066667 76.8s192-38.4 209.066667-76.8c-55.466667-46.933333-128-72.533333-209.066667-72.533333s-153.6 25.6-209.066667 72.533333z m482.133334 64c-59.733333 72.533333-209.066667 98.133333-273.066667 98.133333s-209.066667-25.6-273.066667-98.133333c-42.666667 55.466667-68.266667 128-68.266666 204.8 0 187.733333 153.6 341.333333 341.333333 341.333333s341.333333-153.6 341.333333-341.333333c0-76.8-25.6-149.333333-68.266666-204.8zM512 640c-81.066667 0-149.333333-68.266667-149.333333-149.333333S430.933333 341.333333 512 341.333333s149.333333 68.266667 149.333333 149.333334S593.066667 640 512 640z m0-213.333333c-34.133333 0-64 29.866667-64 64S477.866667 554.666667 512 554.666667s64-29.866667 64-64S546.133333 426.666667 512 426.666667z"  horiz-adv-x="1024" />

    
    <glyph glyph-name="aguacates_promo" unicode="&#58903;" d="M560.274286 136.777143c-70.217143-131.169524-232.106667-173.104762-357.424762-94.110476-107.27619 68.266667-160.426667 210.16381-123.855238 334.506666 10.727619 36.08381 8.777143 70.217143 1.462857 105.325715l-10.24 46.811428C54.613333 632.198095 114.590476 733.622857 209.67619 757.51619c100.937143 25.84381 209.67619-44.373333 237.958096-153.6 11.215238-43.398095 24.868571-83.870476 57.539047-116.053333 91.672381-90.209524 114.590476-239.420952 55.100953-351.085714zM389.607619 50.95619c-118.00381-29.744762-241.371429 47.786667-275.992381 173.592381-12.678095 45.83619-12.190476 93.622857 0.975238 137.996191 13.653333 45.348571 12.190476 92.16-3.900952 155.550476-22.430476 88.259048 26.819048 177.493333 109.714286 198.460952l1.950476 0.48762c38.521905 9.264762 79.481905 1.950476 115.078095-20.96762 39.009524-24.868571 66.31619-64.853333 75.580952-109.714285 10.727619-51.2 34.133333-95.573333 67.779048-129.219048 32.182857-31.695238 55.588571-72.655238 67.291429-118.003809 32.182857-127.268571-37.546667-256-155.550477-287.695238l-2.925714-0.48762zM295.984762 419.59619c-65.340952-16.579048-104.350476-87.28381-86.308572-157.988571 18.041905-70.217143 85.820952-114.102857 151.161905-97.523809 65.340952 16.579048 104.350476 87.28381 86.308572 157.988571-17.554286 70.217143-85.333333 114.102857-151.161905 97.523809z m62.415238-245.76c-60.464762-15.11619-122.88 24.868571-139.459048 90.209524-16.579048 65.340952 19.017143 130.681905 79.481905 145.798096 60.464762 15.11619 122.88-24.868571 139.459048-90.209524 16.579048-65.340952-19.017143-130.681905-79.481905-145.798096zM358.4 173.83619c-60.464762-15.11619-122.88 24.868571-139.459048 90.209524-16.579048 65.340952 19.017143 130.681905 79.481905 145.798096 60.464762 15.11619 122.88-24.868571 139.459048-90.209524 16.579048-65.340952-19.017143-130.681905-79.481905-145.798096zM324.754286 534.674286m-18.529524 0a18.529524 18.529524 0 1 1 37.059048 0 18.529524 18.529524 0 1 1-37.059048 0ZM216.015238 506.88m-18.529524 0a18.529524 18.529524 0 1 1 37.059048 0 18.529524 18.529524 0 1 1-37.059048 0ZM522.24 505.417143c-26.819048 26.331429-39.497143 59.489524-50.712381 104.350476-31.207619 121.904762-153.6 200.411429-267.215238 171.154286C98.011429 754.102857 28.769524 641.950476 46.32381 525.409524v-0.975238l10.24-47.299048c7.314286-36.571429 6.826667-65.340952-1.462858-93.135238-39.984762-135.558095 16.579048-287.695238 134.095238-362.300952 65.828571-41.447619 142.872381-54.125714 216.502858-35.596191 75.580952 19.017143 137.99619 68.266667 175.542857 138.48381 65.828571 122.392381 40.96 282.331429-59.001905 380.830476z m38.034286-368.64c-70.217143-131.169524-232.106667-173.104762-357.424762-94.110476-107.27619 68.266667-160.426667 210.16381-123.855238 334.506666 10.727619 36.08381 8.777143 70.217143 1.462857 105.325715l-10.24 46.811428C54.613333 632.198095 114.590476 733.622857 209.67619 757.51619c100.937143 25.84381 209.67619-44.373333 237.958096-153.6 11.215238-43.398095 24.868571-83.870476 57.539047-116.053333 91.672381-90.209524 114.590476-239.420952 55.100953-351.085714zM191.538358 590.778261a13.653333 29.257143 14.257 1 1 26.465644 6.72486 13.653333 29.257143 14.257 1 1-26.465644-6.72486ZM327.192381 613.668571c-1.950476-0.487619-3.900952 0-5.36381 0.975239-16.579048 9.752381-29.744762 6.826667-39.497142-10.24-1.950476-3.413333-6.339048-4.388571-10.24-2.438096-3.413333 1.950476-4.388571 6.339048-2.438096 10.24 14.140952 23.405714 36.08381 29.257143 59.489524 15.116191 3.413333-1.950476 4.388571-6.339048 2.438095-10.24-0.975238-1.950476-2.438095-2.925714-4.388571-3.413334zM278.918095 486.4c-18.041905-4.388571-37.546667-0.487619-58.514285 11.702857-3.413333 1.950476-4.388571 6.339048-2.438096 10.24 1.950476 3.413333 6.339048 4.388571 10.24 2.438095 35.108571-20.967619 63.878095-13.653333 84.358096 21.455238 1.950476 3.413333 6.339048 4.388571 10.24 2.438096 3.413333-1.950476 4.388571-6.339048 2.438095-10.24-12.678095-20.967619-28.281905-33.645714-46.32381-38.034286zM481.28 457.142857C447.634286 490.300952 424.228571 535.161905 413.500952 586.361905 404.23619 631.222857 376.441905 671.695238 337.92 696.07619c-35.59619 22.918095-76.55619 30.232381-115.078095 20.96762l-1.950476-0.48762c-4.87619-1.462857-9.752381-2.925714-14.140953-4.388571 35.108571 5.36381 71.192381-2.925714 102.887619-23.405714 39.009524-24.868571 66.31619-64.853333 75.580953-109.714286 10.727619-51.2 34.133333-95.573333 67.779047-129.219048 32.182857-31.695238 55.588571-72.655238 67.291429-118.003809 31.207619-122.88-33.158095-247.710476-143.847619-284.281905 4.87619 0.975238 9.264762 1.950476 14.140952 2.925714l2.438095 0.487619c118.00381 31.695238 188.220952 160.914286 155.550477 287.695239-11.702857 45.83619-35.108571 86.308571-67.291429 118.491428zM881.615238 81.67619c-100.449524-109.714286-267.702857-110.689524-369.615238-2.925714-87.28381 92.647619-103.375238 243.321905-37.546667 354.986667 19.017143 32.182857 25.84381 65.340952 27.794286 101.424762l1.462857 47.786666c9.752381 103.375238 93.135238 186.270476 191.634286 186.270477 104.350476 0 192.121905-95.085714 192.609524-207.725715 0-44.860952 3.413333-87.28381 26.819047-126.293333 66.31619-109.714286 52.175238-260.388571-33.158095-353.52381zM695.344762 40.228571c-121.417143 0-222.354286 105.813333-224.792381 236.007619-0.975238 47.786667 11.215238 93.622857 35.108571 133.60762 24.380952 40.96 34.620952 86.308571 34.620953 151.649523 0 91.184762 69.729524 165.302857 155.062857 165.302857h2.438095c39.497143-0.487619 77.531429-18.041905 106.300953-48.761904 31.695238-33.645714 48.274286-78.994286 46.323809-125.318096-2.438095-52.175238 9.264762-100.937143 33.645714-141.897142 23.405714-39.009524 36.08381-83.870476 36.08381-130.681905 0-131.169524-99.474286-238.933333-221.866667-240.396191l-2.925714 0.487619zM695.344762 167.009524c-62.415238 0-113.127619 54.613333-113.127619 121.904762s50.712381 121.904762 113.127619 121.904762c62.415238 0 113.127619-54.613333 113.127619-121.904762-0.487619-67.291429-50.712381-121.904762-113.127619-121.904762zM751.420952 524.921905m-18.529523 0a18.529524 18.529524 0 1 1 37.059047 0 18.529524 18.529524 0 1 1-37.059047 0ZM639.268571 525.409524m-18.529523 0a18.529524 18.529524 0 1 1 37.059047 0 18.529524 18.529524 0 1 1-37.059047 0ZM935.740952 447.878095c-19.504762 32.182857-23.405714 67.291429-23.405714 114.102857 0 125.805714-99.474286 232.106667-216.990476 232.106667-109.714286 0-204.312381-91.672381-216.015238-208.700952v-0.975238l-1.462857-48.274286c-1.950476-37.546667-9.264762-65.340952-24.380953-90.209524-72.167619-121.417143-55.100952-282.819048 40.472381-383.75619 53.638095-56.56381 124.830476-87.771429 201.386667-87.771429 78.019048 0 150.674286 32.182857 204.312381 90.697143 93.135238 101.912381 108.251429 262.826667 36.083809 382.780952zM881.615238 81.67619c-100.449524-109.714286-267.702857-110.689524-369.615238-2.925714-87.28381 92.647619-103.375238 243.321905-37.546667 354.986667 19.017143 32.182857 25.84381 65.340952 27.794286 101.424762l1.462857 47.786666c9.752381 103.375238 93.135238 186.270476 191.634286 186.270477 104.350476 0 192.121905-95.085714 192.609524-207.725715 0-44.860952 3.413333-87.28381 26.819047-126.293333 66.31619-109.714286 52.175238-260.388571-33.158095-353.52381zM640.24381 612.205714a29.257143 13.653333 90 1 1 27.306666 0 29.257143 13.653333 90 1 1-27.306666 0ZM723.139048 612.205714a29.257143 13.653333 90 1 1 27.306666 0 29.257143 13.653333 90 1 1-27.306666 0ZM695.344762 489.325714c-18.529524 0-36.571429 8.777143-54.125714 25.84381-2.925714 2.925714-2.925714 7.314286 0 10.24 2.925714 2.925714 7.314286 2.925714 10.24 0 28.769524-28.769524 58.514286-28.769524 87.283809 0 2.925714 2.925714 7.314286 2.925714 10.24 0 2.925714-2.925714 2.925714-7.314286 0-10.24-17.066667-17.066667-35.108571-25.84381-53.638095-25.84381zM883.565714 411.306667c-24.380952 40.472381-36.08381 89.721905-33.645714 141.897143 1.950476 45.83619-14.628571 91.672381-46.32381 125.318095-28.769524 30.72-66.80381 48.274286-106.300952 48.761905h-2.438095c-4.87619 0-9.752381-0.487619-14.628572-0.975239 35.108571-3.413333 68.266667-20.48 94.110477-47.786666 31.695238-33.645714 48.274286-78.994286 46.323809-125.318095-2.438095-52.175238 9.264762-100.937143 33.645714-141.897143 23.405714-39.009524 36.08381-83.870476 36.08381-130.681905 0-126.780952-93.135238-231.619048-209.676191-239.908572 4.87619-0.487619 9.264762-0.487619 14.140953-0.487619h2.925714c122.392381 1.462857 221.866667 109.714286 221.866667 240.396191 0 46.811429-12.190476 91.672381-36.08381 130.681905z"  horiz-adv-x="1024" />

    
    <glyph glyph-name="outline-dashboard-px" unicode="&#58904;" d="M810.666667 682.666667v-85.333334h-170.666667V682.666667h170.666667M384 682.666667v-256H213.333333V682.666667h170.666667m426.666667-341.333334v-256h-170.666667v256h170.666667M384 170.666667v-85.333334H213.333333v85.333334h170.666667M896 768h-341.333333v-256h341.333333V768zM469.333333 768H128v-426.666667h341.333333V768z m426.666667-341.333333h-341.333333v-426.666667h341.333333V426.666667z m-426.666667-170.666667H128v-256h341.333333v256z"  horiz-adv-x="1024" />

    
    <glyph glyph-name="outline-arrow_upward-px" unicode="&#58905;" d="M200.533333 354.133333c17.066667-17.066667 42.666667-17.066667 59.733334 0L469.333333 563.2V85.333333c0-25.6 17.066667-42.666667 42.666667-42.666666s42.666667 17.066667 42.666667 42.666666V563.2l209.066666-209.066667c17.066667-17.066667 42.666667-17.066667 59.733334 0 17.066667 17.066667 17.066667 42.666667 0 59.733334L512 725.333333l-311.466667-311.466666c-17.066667-17.066667-17.066667-42.666667 0-59.733334z"  horiz-adv-x="1024" />

    
    <glyph glyph-name="outline-crown_android" unicode="&#58906;" d="M751.403947 494.933333l-213.333334 247.466667c-12.8 12.8-34.133333 12.8-46.933333 0l-213.333333-247.466667L43.13728 610.133333c-21.333333 8.533333-46.933333-8.533333-42.666667-34.133333l93.866667-537.6c4.266667-12.8 12.8-25.6 29.866667-25.6h780.8c12.8 0 25.6 8.533333 29.866666 25.6L1024.470613 576c4.266667 25.6-21.333333 42.666667-42.666666 34.133333l-230.4-115.2z m102.4-396.8H171.13728l-64 384 166.4-81.066666c17.066667-8.533333 34.133333-4.266667 46.933333 8.533333L512.470613 640l196.266667-226.133333c12.8-12.8 29.866667-17.066667 46.933333-8.533334l166.4 81.066667-68.266666-388.266667z"  horiz-adv-x="1024" />

    
    <glyph glyph-name="outline-explore-px" unicode="&#58907;" d="M512 810.666667C276.48 810.666667 85.333333 619.52 85.333333 384s191.146667-426.666667 426.666667-426.666667 426.666667 191.146667 426.666667 426.666667S747.52 810.666667 512 810.666667z m0-768c-188.16 0-341.333333 153.173333-341.333333 341.333333s153.173333 341.333333 341.333333 341.333333 341.333333-153.173333 341.333333-341.333333-153.173333-341.333333-341.333333-341.333333z m-234.666667 106.666666l320.426667 148.906667L746.666667 618.666667 426.24 469.76 277.333333 149.333333z m234.666667 281.6c26.026667 0 46.933333-20.906667 46.933333-46.933333s-20.906667-46.933333-46.933333-46.933333-46.933333 20.906667-46.933333 46.933333 20.906667 46.933333 46.933333 46.933333z"  horiz-adv-x="1024" />

    
    <glyph glyph-name="outline-category-px" unicode="&#58908;" d="M486.4 768l-183.466667-298.666667c-8.533333-17.066667 4.266667-42.666667 25.6-42.666666h362.666667c21.333333 0 38.4 25.6 25.6 46.933333l-183.466667 298.666667c-8.533333 17.066667-34.133333 17.066667-46.933333-4.266667z m25.6-119.466667L593.066667 512H426.666667l85.333333 136.533333zM746.666667 341.333333C640 341.333333 554.666667 256 554.666667 149.333333s85.333333-192 192-192 192 85.333333 192 192-85.333333 192-192 192z m0-298.666666c-59.733333 0-106.666667 46.933333-106.666667 106.666666s46.933333 106.666667 106.666667 106.666667 106.666667-46.933333 106.666666-106.666667-46.933333-106.666667-106.666666-106.666666zM128 290.133333v-281.6c0-17.066667 12.8-29.866667 29.866667-29.866666h281.6c17.066667 0 29.866667 12.8 29.866666 29.866666v281.6c0 17.066667-12.8 29.866667-29.866666 29.866667H157.866667c-17.066667 0-29.866667-12.8-29.866667-29.866667z m256-226.133333H213.333333v170.666667h170.666667v-170.666667z"  horiz-adv-x="1024" />

    
    <glyph glyph-name="outline-help_outline-px" unicode="&#58909;" d="M469.333333 128h85.333334v85.333333h-85.333334v-85.333333z m115.2 678.4C294.4 853.333333 42.666667 601.6 89.6 311.466667c29.866667-174.933333 170.666667-320 349.866667-349.866667C729.6-85.333333 981.333333 166.4 934.4 456.533333c-29.866667 174.933333-174.933333 320-349.866667 349.866667z m-4.266666-755.2C341.333333 4.266667 132.266667 213.333333 179.2 452.266667c25.6 132.266667 132.266667 243.2 268.8 268.8C686.933333 768 896 558.933333 849.066667 320c-29.866667-136.533333-136.533333-243.2-268.8-268.8zM537.6 640C430.933333 652.8 341.333333 571.733333 341.333333 469.333333h85.333334c0 51.2 46.933333 93.866667 102.4 85.333334 42.666667-8.533333 68.266667-46.933333 68.266666-89.6-4.266667-76.8-128-72.533333-128-209.066667h85.333334c0 102.4 145.066667 106.666667 128 234.666667-12.8 72.533333-72.533333 136.533333-145.066667 149.333333z"  horiz-adv-x="1024" />

    
    <glyph glyph-name="outline-headset_mic-px" unicode="&#58910;" d="M810.666667 298.666667v-170.666667h-85.333334v170.666667h85.333334M298.666667 298.666667v-170.666667H256c-25.6 0-42.666667 21.333333-42.666667 42.666667v128h85.333334m187.733333 554.666666C281.6 840.533333 128 661.333333 128 456.533333v-251.733333C128 98.133333 183.466667 42.666667 256 42.666667h98.133333c17.066667 0 29.866667 12.8 29.866667 29.866666v281.6c0 17.066667-12.8 29.866667-29.866667 29.866667H213.333333v72.533333C213.333333 618.666667 341.333333 763.733333 503.466667 768c170.666667 4.266667 307.2-132.266667 307.2-298.666667v-85.333333h-140.8c-17.066667 0-29.866667-12.8-29.866667-29.866667v-281.6c0-17.066667 12.8-29.866667 29.866667-29.866666H810.666667v-42.666667h-256c-25.6 0-42.666667-17.066667-42.666667-42.666667s17.066667-42.666667 42.666667-42.666666h213.333333c72.533333 0 128 55.466667 128 128V469.333333c0 221.866667-187.733333 396.8-409.6 384z"  horiz-adv-x="1024" />

    
    <glyph glyph-name="outline-home-px-G" unicode="&#58911;" d="M512 652.8l213.333333-192V128h-85.333333v226.133333c0 17.066667-12.8 29.866667-29.866667 29.866667H413.866667c-17.066667 0-29.866667-12.8-29.866667-29.866667V128H298.666667v332.8l213.333333 192m-21.333333 98.133333l-349.866667-315.733333c-17.066667-17.066667-4.266667-51.2 21.333333-51.2H213.333333v-311.466667c0-17.066667 12.8-29.866667 29.866667-29.866666h196.266667c17.066667 0 29.866667 12.8 29.866666 29.866666V298.666667h85.333334v-226.133334c0-17.066667 12.8-29.866667 29.866666-29.866666h196.266667c17.066667 0 29.866667 12.8 29.866667 29.866666V384h51.2c25.6 0 38.4 34.133333 21.333333 51.2l-349.866667 315.733333c-12.8 8.533333-29.866667 8.533333-42.666666 0z"  horiz-adv-x="1024" />

    
    <glyph glyph-name="outline-home-px" unicode="&#58912;" d="M512 652.8l213.333333-192V128h-85.333333v226.133333c0 17.066667-12.8 29.866667-29.866667 29.866667H413.866667c-17.066667 0-29.866667-12.8-29.866667-29.866667V128H298.666667v332.8l213.333333 192m-21.333333 98.133333l-349.866667-315.733333c-17.066667-17.066667-4.266667-51.2 21.333333-51.2H213.333333v-311.466667c0-17.066667 12.8-29.866667 29.866667-29.866666h196.266667c17.066667 0 29.866667 12.8 29.866666 29.866666V298.666667h85.333334v-226.133334c0-17.066667 12.8-29.866667 29.866666-29.866666h196.266667c17.066667 0 29.866667 12.8 29.866667 29.866666V384h51.2c25.6 0 38.4 34.133333 21.333333 51.2l-349.866667 315.733333c-12.8 8.533333-29.866667 8.533333-42.666666 0z"  horiz-adv-x="1024" />

    
    <glyph glyph-name="outline-local_shipping-px" unicode="&#58913;" d="M853.333333 554.666667h-128V640c0 46.933333-38.4 85.333333-85.333333 85.333333H128c-46.933333 0-85.333333-38.4-85.333333-85.333333v-384c0-46.933333 38.4-85.333333 85.333333-85.333333 0-72.533333 55.466667-128 128-128s128 55.466667 128 128h256c0-72.533333 55.466667-128 128-128s128 55.466667 128 128h55.466667c17.066667 0 29.866667 12.8 29.866666 29.866666V384l-128 170.666667z m-21.333333-64l85.333333-106.666667H725.333333V490.666667h106.666667zM256 128c-25.6 0-42.666667 21.333333-42.666667 42.666667s17.066667 42.666667 42.666667 42.666666 42.666667-21.333333 42.666667-42.666666-17.066667-42.666667-42.666667-42.666667z m93.866667 128c-25.6 25.6-55.466667 42.666667-93.866667 42.666667s-72.533333-17.066667-93.866667-42.666667H128V640h512v-384H349.866667z m418.133333-128c-21.333333 0-42.666667 21.333333-42.666667 42.666667s21.333333 42.666667 42.666667 42.666666 42.666667-21.333333 42.666667-42.666666-21.333333-42.666667-42.666667-42.666667z"  horiz-adv-x="1024" />

    
    <glyph glyph-name="outline-location_on-px" unicode="&#58914;" d="M512 810.666667C345.6 810.666667 213.333333 678.4 213.333333 512c0-187.733333 204.8-448 277.333334-529.066667 12.8-12.8 34.133333-12.8 46.933333 0 68.266667 81.066667 277.333333 341.333333 277.333333 529.066667-4.266667 166.4-136.533333 298.666667-302.933333 298.666667zM298.666667 512c0 119.466667 93.866667 213.333333 213.333333 213.333333s213.333333-93.866667 213.333333-213.333333c0-110.933333-102.4-277.333333-187.733333-388.266667-12.8-17.066667-34.133333-17.066667-46.933333 0C401.066667 234.666667 298.666667 401.066667 298.666667 512zM512 512m-106.666667 0a106.666667 106.666667 0 1 1 213.333334 0 106.666667 106.666667 0 1 1-213.333334 0Z"  horiz-adv-x="1024" />

    
    <glyph glyph-name="outline-local_shipping-pxGrey" unicode="&#58915;" d="M853.333333 554.666667h-128V640c0 46.933333-38.4 85.333333-85.333333 85.333333H128c-46.933333 0-85.333333-38.4-85.333333-85.333333v-384c0-46.933333 38.4-85.333333 85.333333-85.333333 0-72.533333 55.466667-128 128-128s128 55.466667 128 128h256c0-72.533333 55.466667-128 128-128s128 55.466667 128 128h55.466667c17.066667 0 29.866667 12.8 29.866666 29.866666V384l-128 170.666667z m-21.333333-64l85.333333-106.666667H725.333333V490.666667h106.666667zM256 128c-25.6 0-42.666667 21.333333-42.666667 42.666667s17.066667 42.666667 42.666667 42.666666 42.666667-21.333333 42.666667-42.666666-17.066667-42.666667-42.666667-42.666667z m93.866667 128c-25.6 25.6-55.466667 42.666667-93.866667 42.666667s-72.533333-17.066667-93.866667-42.666667H128V640h512v-384H349.866667z m418.133333-128c-21.333333 0-42.666667 21.333333-42.666667 42.666667s21.333333 42.666667 42.666667 42.666666 42.666667-21.333333 42.666667-42.666666-21.333333-42.666667-42.666667-42.666667z"  horiz-adv-x="1024" />

    
    <glyph glyph-name="outline-local_shipping-pxG" unicode="&#58916;" d="M853.333333 554.666667h-128V640c0 46.933333-38.4 85.333333-85.333333 85.333333H128c-46.933333 0-85.333333-38.4-85.333333-85.333333v-384c0-46.933333 38.4-85.333333 85.333333-85.333333 0-72.533333 55.466667-128 128-128s128 55.466667 128 128h256c0-72.533333 55.466667-128 128-128s128 55.466667 128 128h55.466667c17.066667 0 29.866667 12.8 29.866666 29.866666V384l-128 170.666667z m-21.333333-64l85.333333-106.666667H725.333333V490.666667h106.666667zM256 128c-25.6 0-42.666667 21.333333-42.666667 42.666667s17.066667 42.666667 42.666667 42.666666 42.666667-21.333333 42.666667-42.666666-17.066667-42.666667-42.666667-42.666667z m93.866667 128c-25.6 25.6-55.466667 42.666667-93.866667 42.666667s-72.533333-17.066667-93.866667-42.666667H128V640h512v-384H349.866667z m418.133333-128c-21.333333 0-42.666667 21.333333-42.666667 42.666667s21.333333 42.666667 42.666667 42.666666 42.666667-21.333333 42.666667-42.666666-21.333333-42.666667-42.666667-42.666667z"  horiz-adv-x="1024" />

    
    <glyph glyph-name="outline-notifications-px" unicode="&#58917;" d="M512-42.666667c46.933333 0 85.333333 38.4 85.333333 85.333334h-170.666666c0-46.933333 38.4-85.333333 85.333333-85.333334z m256 256v213.333334c0 130.986667-69.546667 240.64-192 269.653333V725.333333c0 35.413333-28.586667 64-64 64s-64-28.586667-64-64v-29.013333C325.973333 667.306667 256 558.08 256 426.666667v-213.333334l-85.333333-85.333333v-42.666667h682.666666v42.666667l-85.333333 85.333333z m-85.333333-42.666666H341.333333v256c0 105.813333 64.426667 192 170.666667 192s170.666667-86.186667 170.666667-192v-256z"  horiz-adv-x="1024" />

    
    <glyph glyph-name="outline-pay_acepted-G" unicode="&#58918;" d="M853.333333 725.333333H170.666667c-46.933333 0-85.333333-38.4-85.333334-85.333333v-512c0-46.933333 38.4-85.333333 85.333334-85.333333h682.666666c46.933333 0 85.333333 38.4 85.333334 85.333333V640c0 46.933333-38.4 85.333333-85.333334 85.333333z m0-597.333333H170.666667v256h682.666666v-256z m0 426.666667H170.666667V640h682.666666v-85.333333zM768 213.333333m-213.333333 0a213.333333 213.333333 0 1 1 426.666666 0 213.333333 213.333333 0 1 1-426.666666 0ZM866.133333 307.2L725.333333 166.4l-55.466666 55.466667-29.866667-29.866667 85.333333-85.333333 170.666667 170.666666z"  horiz-adv-x="1024" />

    
    <glyph glyph-name="outline-pay_acepted" unicode="&#58919;" d="M853.333333 725.333333H170.666667c-46.933333 0-85.333333-38.4-85.333334-85.333333v-512c0-46.933333 38.4-85.333333 85.333334-85.333333h682.666666c46.933333 0 85.333333 38.4 85.333334 85.333333V640c0 46.933333-38.4 85.333333-85.333334 85.333333z m0-597.333333H170.666667v256h682.666666v-256z m0 426.666667H170.666667V640h682.666666v-85.333333zM768 213.333333m-213.333333 0a213.333333 213.333333 0 1 1 426.666666 0 213.333333 213.333333 0 1 1-426.666666 0ZM866.133333 307.2L725.333333 166.4l-55.466666 55.466667-29.866667-29.866667 85.333333-85.333333 170.666667 170.666666z"  horiz-adv-x="1024" />

    
    <glyph glyph-name="outline-radio_button_checked-px" unicode="&#58920;" d="M512 810.666667C277.333333 810.666667 85.333333 618.666667 85.333333 384s192-426.666667 426.666667-426.666667 426.666667 192 426.666667 426.666667S746.666667 810.666667 512 810.666667z m0-768c-187.733333 0-341.333333 153.6-341.333333 341.333333s153.6 341.333333 341.333333 341.333333 341.333333-153.6 341.333333-341.333333-153.6-341.333333-341.333333-341.333333zM512 384m-213.333333 0a213.333333 213.333333 0 1 1 426.666666 0 213.333333 213.333333 0 1 1-426.666666 0Z"  horiz-adv-x="1024" />

    
    <glyph glyph-name="outline-phone_android-px" unicode="&#58921;" d="M682.666667 853.333333H341.333333C268.8 853.333333 213.333333 797.866667 213.333333 725.333333v-682.666666c0-72.533333 55.466667-128 128-128h341.333334c72.533333 0 128 55.466667 128 128V725.333333c0 72.533333-55.466667 128-128 128z m42.666666-725.333333H298.666667V725.333333h426.666666v-597.333333z m-128-128h-170.666666v42.666667h170.666666v-42.666667z"  horiz-adv-x="1024" />

    
    <glyph glyph-name="outline-share-px" unicode="&#58922;" d="M768 209.066667c-34.133333 0-59.733333-12.8-85.333333-34.133334l-302.933334 179.2c4.266667 8.533333 4.266667 21.333333 4.266667 29.866667s0 21.333333-4.266667 29.866667L682.666667 588.8c21.333333-21.333333 51.2-34.133333 85.333333-34.133333 72.533333 0 128 55.466667 128 128s-55.466667 128-128 128-128-55.466667-128-128c0-8.533333 0-21.333333 4.266667-29.866667L341.333333 477.866667C320 499.2 290.133333 512 256 512c-72.533333 0-128-55.466667-128-128s55.466667-128 128-128c34.133333 0 64 12.8 85.333333 34.133333l302.933334-179.2c-4.266667-8.533333-4.266667-17.066667-4.266667-25.6 0-68.266667 55.466667-123.733333 123.733333-123.733333s123.733333 55.466667 123.733334 123.733333-51.2 123.733333-119.466667 123.733334zM768 725.333333c21.333333 0 42.666667-17.066667 42.666667-42.666666s-21.333333-42.666667-42.666667-42.666667-42.666667 17.066667-42.666667 42.666667 21.333333 42.666667 42.666667 42.666666zM256 341.333333c-25.6 0-42.666667 17.066667-42.666667 42.666667s17.066667 42.666667 42.666667 42.666667 42.666667-17.066667 42.666667-42.666667-17.066667-42.666667-42.666667-42.666667z m512-298.666666c-21.333333 0-42.666667 21.333333-42.666667 42.666666s21.333333 42.666667 42.666667 42.666667 42.666667-21.333333 42.666667-42.666667-21.333333-42.666667-42.666667-42.666666z"  horiz-adv-x="1024" />

    
    <glyph glyph-name="outline-radio_button_px" unicode="&#58923;" d="M512 810.666667C277.333333 810.666667 85.333333 618.666667 85.333333 384s192-426.666667 426.666667-426.666667 426.666667 192 426.666667 426.666667S746.666667 810.666667 512 810.666667z m0-768c-187.733333 0-341.333333 153.6-341.333333 341.333333s153.6 341.333333 341.333333 341.333333 341.333333-153.6 341.333333-341.333333-153.6-341.333333-341.333333-341.333333z"  horiz-adv-x="1024" />

    
    <glyph glyph-name="outline-shopping_bag" unicode="&#58924;" d="M0 896h1024v-1024H0zM819.2 669.866667H725.333333c0 119.466667-93.866667 213.333333-213.333333 213.333333s-213.333333-93.866667-213.333333-213.333333H204.8c-12.8 0-25.6-12.8-29.866667-29.866667L123.733333 42.666667v-4.266667c0-85.333333 76.8-153.6 170.666667-153.6h439.466667c93.866667 0 170.666667 68.266667 170.666666 153.6V42.666667L849.066667 640c-4.266667 17.066667-17.066667 29.866667-29.866667 29.866667z m-307.2 128c72.533333 0 128-55.466667 128-128H384c0 68.266667 55.466667 128 128 128z m221.866667-827.733334H294.4c-46.933333 0-85.333333 29.866667-85.333333 68.266667L256 584.533333h512l46.933333-546.133333c0-38.4-38.4-68.266667-81.066666-68.266667zM768 213.333333m-213.333333 0a213.333333 213.333333 0 1 1 426.666666 0 213.333333 213.333333 0 1 1-426.666666 0ZM866.133333 307.2L725.333333 166.4l-55.466666 55.466667-29.866667-29.866667 85.333333-85.333333 170.666667 170.666666z"  horiz-adv-x="1024" />

    
    <glyph glyph-name="outline-category-px-G" unicode="&#58925;" d="M486.4 768l-183.466667-298.666667c-8.533333-17.066667 4.266667-42.666667 25.6-42.666666h362.666667c21.333333 0 38.4 25.6 25.6 46.933333l-183.466667 298.666667c-8.533333 17.066667-34.133333 17.066667-46.933333-4.266667z m25.6-119.466667L593.066667 512H426.666667l85.333333 136.533333zM746.666667 341.333333C640 341.333333 554.666667 256 554.666667 149.333333s85.333333-192 192-192 192 85.333333 192 192-85.333333 192-192 192z m0-298.666666c-59.733333 0-106.666667 46.933333-106.666667 106.666666s46.933333 106.666667 106.666667 106.666667 106.666667-46.933333 106.666666-106.666667-46.933333-106.666667-106.666666-106.666666zM128 290.133333v-281.6c0-17.066667 12.8-29.866667 29.866667-29.866666h281.6c17.066667 0 29.866667 12.8 29.866666 29.866666v281.6c0 17.066667-12.8 29.866667-29.866666 29.866667H157.866667c-17.066667 0-29.866667-12.8-29.866667-29.866667z m256-226.133333H213.333333v170.666667h170.666667v-170.666667z"  horiz-adv-x="1024" />

    
    <glyph glyph-name="outline-settings-px" unicode="&#58926;" d="M827.733333 341.333333c0 12.8 4.266667 25.6 4.266667 42.666667 0 12.8 0 29.866667-4.266667 42.666667l89.6 68.266666c8.533333 4.266667 8.533333 17.066667 4.266667 25.6l-85.333333 149.333334c0 8.533333-8.533333 12.8-17.066667 12.8H810.666667l-106.666667-42.666667c-21.333333 17.066667-46.933333 29.866667-72.533333 42.666667l-17.066667 115.2c4.266667 4.266667-8.533333 12.8-17.066667 12.8h-170.666666c-8.533333 0-21.333333-8.533333-21.333334-17.066667l-17.066666-115.2c-25.6-8.533333-46.933333-25.6-72.533334-42.666667l-106.666666 42.666667c0 4.266667-4.266667 4.266667-4.266667 4.266667-8.533333 0-17.066667-4.266667-21.333333-12.8l-85.333334-149.333334c-4.266667-4.266667 0-17.066667 8.533334-25.6L196.266667 426.666667c0-12.8-4.266667-25.6-4.266667-42.666667 0-12.8 0-29.866667 4.266667-42.666667l-89.6-68.266666c-8.533333-4.266667-8.533333-17.066667-4.266667-25.6l85.333333-149.333334c0-8.533333 8.533333-12.8 17.066667-12.8H213.333333l106.666667 42.666667c21.333333-17.066667 46.933333-29.866667 72.533333-42.666667l17.066667-110.933333c0-8.533333 8.533333-17.066667 21.333333-17.066667h170.666667c8.533333 0 21.333333 8.533333 21.333333 17.066667L640 85.333333c25.6 8.533333 51.2 25.6 72.533333 42.666667l106.666667-42.666667h8.533333c8.533333 0 12.8 4.266667 17.066667 8.533334l85.333333 149.333333c4.266667 8.533333 4.266667 21.333333-4.266666 25.6L827.733333 341.333333z m-81.066666 72.533334v-59.733334l-4.266667-46.933333 38.4-29.866667 46.933333-34.133333-29.866666-51.2-55.466667 21.333333-42.666667 17.066667-38.4-29.866667c-17.066667-12.8-34.133333-25.6-51.2-29.866666l-46.933333-17.066667-8.533333-46.933333-12.8-64h-59.733334l-8.533333 59.733333-4.266667 46.933333-46.933333 17.066667c-17.066667 8.533333-34.133333 17.066667-51.2 29.866667l-38.4 29.866666-46.933333-17.066666-55.466667-21.333334-29.866667 51.2 46.933334 34.133334 38.4 29.866666-4.266667 46.933334c0 12.8-4.266667 21.333333-4.266667 29.866666s0 17.066667 4.266667 29.866667l4.266667 46.933333-38.4 38.4-46.933334 34.133334 29.866667 51.2 55.466667-21.333334 42.666666-17.066666 38.4 29.866666c17.066667 12.8 34.133333 25.6 51.2 29.866667l46.933334 17.066667 8.533333 46.933333 8.533333 59.733333h59.733334l8.533333-55.466666 4.266667-51.2 46.933333-17.066667c17.066667-8.533333 34.133333-17.066667 51.2-29.866667l38.4-29.866666 46.933333 17.066666 55.466667 21.333334 29.866667-51.2-46.933334-38.4-38.4-29.866667c0 4.266667 8.533333-46.933333 8.533334-46.933333zM512 554.666667c-93.866667 0-170.666667-76.8-170.666667-170.666667s76.8-170.666667 170.666667-170.666667 170.666667 76.8 170.666667 170.666667-76.8 170.666667-170.666667 170.666667z m0-256c-46.933333 0-85.333333 38.4-85.333333 85.333333s38.4 85.333333 85.333333 85.333333 85.333333-38.4 85.333333-85.333333-38.4-85.333333-85.333333-85.333333z"  horiz-adv-x="1024" />

    
    <glyph glyph-name="outline-shopping_bag-G" unicode="&#58927;" d="M0 896h1024v-1024H0zM819.2 669.866667H725.333333c0 119.466667-93.866667 213.333333-213.333333 213.333333s-213.333333-93.866667-213.333333-213.333333H204.8c-12.8 0-25.6-12.8-29.866667-29.866667L123.733333 42.666667v-4.266667c0-85.333333 76.8-153.6 170.666667-153.6h439.466667c93.866667 0 170.666667 68.266667 170.666666 153.6V42.666667L849.066667 640c-4.266667 17.066667-17.066667 29.866667-29.866667 29.866667z m-307.2 128c72.533333 0 128-55.466667 128-128H384c0 68.266667 55.466667 128 128 128z m221.866667-827.733334H294.4c-46.933333 0-85.333333 29.866667-85.333333 68.266667L256 584.533333h512l46.933333-546.133333c0-38.4-38.4-68.266667-81.066666-68.266667zM768 213.333333m-213.333333 0a213.333333 213.333333 0 1 1 426.666666 0 213.333333 213.333333 0 1 1-426.666666 0ZM866.133333 307.2L725.333333 166.4l-55.466666 55.466667-29.866667-29.866667 85.333333-85.333333 170.666667 170.666666z"  horiz-adv-x="1024" />

    
    <glyph glyph-name="outline-shopping_cart-px-G" unicode="&#58928;" d="M704 341.333333c29.866667 0 59.733333 17.066667 72.533333 42.666667l153.6 277.333333c17.066667 29.866667 0 64-34.133333 64H264.533333l-29.866666 68.266667c-8.533333 8.533333-17.066667 17.066667-29.866667 17.066667H128c-25.6 0-42.666667-17.066667-42.666667-42.666667s17.066667-42.666667 42.666667-42.666667h42.666667l153.6-324.266666L264.533333 298.666667c-29.866667-55.466667 8.533333-128 76.8-128h469.333334c25.6 0 42.666667 17.066667 42.666666 42.666666s-17.066667 42.666667-42.666666 42.666667H341.333333l46.933334 85.333333h315.733333zM307.2 640h516.266667l-119.466667-213.333333h-298.666667L307.2 640zM341.333333 128c-46.933333 0-85.333333-38.4-85.333333-85.333333s38.4-85.333333 85.333333-85.333334 85.333333 38.4 85.333334 85.333334-38.4 85.333333-85.333334 85.333333z m426.666667 0c-46.933333 0-85.333333-38.4-85.333333-85.333333s38.4-85.333333 85.333333-85.333334 85.333333 38.4 85.333333 85.333334-38.4 85.333333-85.333333 85.333333z"  horiz-adv-x="1024" />

    
    <glyph glyph-name="round-add-px" unicode="&#58929;" d="M768 341.333333h-213.333333v-213.333333c0-21.333333-17.066667-42.666667-42.666667-42.666667s-42.666667 21.333333-42.666667 42.666667v213.333333H256c-25.6 0-42.666667 17.066667-42.666667 42.666667s17.066667 42.666667 42.666667 42.666667h213.333333V640c0 25.6 17.066667 42.666667 42.666667 42.666667s42.666667-17.066667 42.666667-42.666667v-213.333333h213.333333c21.333333 0 42.666667-17.066667 42.666667-42.666667s-21.333333-42.666667-42.666667-42.666667z"  horiz-adv-x="1024" />

    
    <glyph glyph-name="round-arrow_back-px" unicode="&#58930;" d="M810.666667 426.666667H332.8l209.066667 209.066666c17.066667 17.066667 17.066667 42.666667 0 59.733334-17.066667 17.066667-42.666667 17.066667-59.733334 0l-281.6-281.6c-17.066667-17.066667-17.066667-42.666667 0-59.733334l281.6-281.6c17.066667-17.066667 42.666667-17.066667 59.733334 0s17.066667 42.666667 0 59.733334L332.8 341.333333H810.666667c21.333333 0 42.666667 17.066667 42.666666 42.666667s-21.333333 42.666667-42.666666 42.666667z"  horiz-adv-x="1024" />

    
    <glyph glyph-name="round-credit_card-px" unicode="&#58931;" d="M853.333333 725.333333H170.666667c-46.933333 0-85.333333-38.4-85.333334-85.333333v-512c0-46.933333 38.4-85.333333 85.333334-85.333333h682.666666c46.933333 0 85.333333 38.4 85.333334 85.333333V640c0 46.933333-38.4 85.333333-85.333334 85.333333z m-42.666666-597.333333H213.333333c-25.6 0-42.666667 21.333333-42.666666 42.666667v213.333333h682.666666v-213.333333c0-21.333333-21.333333-42.666667-42.666666-42.666667z m42.666666 426.666667H170.666667V640h682.666666v-85.333333z"  horiz-adv-x="1024" />

    
    <glyph glyph-name="outline-store-px-G" unicode="&#58932;" d="M810.666667 725.333333H213.333333c-25.6 0-42.666667-17.066667-42.666666-42.666666s17.066667-42.666667 42.666666-42.666667h597.333334c25.6 0 42.666667 17.066667 42.666666 42.666667s-17.066667 42.666667-42.666666 42.666666zM827.733333 597.333333H196.266667c-17.066667 0-25.6-8.533333-29.866667-25.6L128 384v-85.333333h42.666667v-256h426.666666v256h170.666667v-256h85.333333v256h42.666667v85.333333l-38.4 187.733333c-4.266667 17.066667-12.8 25.6-29.866667 25.6zM512 128H256v170.666667h256v-170.666667z m-298.666667 256l25.6 128h541.866667l25.6-128H213.333333z"  horiz-adv-x="1024" />

    
    <glyph glyph-name="round-home-px" unicode="&#58933;" d="M426.666667 85.333333v213.333334h170.666666v-213.333334c0-23.466667 19.2-42.666667 42.666667-42.666666h128c23.466667 0 42.666667 19.2 42.666667 42.666666v298.666667h72.533333c19.626667 0 29.013333 24.32 14.08 37.12L540.586667 742.4c-16.213333 14.506667-40.96 14.506667-57.173334 0l-356.693333-321.28c-14.506667-12.8-5.546667-37.12 14.08-37.12H213.333333v-298.666667c0-23.466667 19.2-42.666667 42.666667-42.666666h128c23.466667 0 42.666667 19.2 42.666667 42.666666z"  horiz-adv-x="1024" />

    
    <glyph glyph-name="outline-shopping_cart-px" unicode="&#58934;" d="M704 341.333333c29.866667 0 59.733333 17.066667 72.533333 42.666667l153.6 277.333333c17.066667 29.866667 0 64-34.133333 64H264.533333l-29.866666 68.266667c-8.533333 8.533333-17.066667 17.066667-29.866667 17.066667H128c-25.6 0-42.666667-17.066667-42.666667-42.666667s17.066667-42.666667 42.666667-42.666667h42.666667l153.6-324.266666L264.533333 298.666667c-29.866667-55.466667 8.533333-128 76.8-128h469.333334c25.6 0 42.666667 17.066667 42.666666 42.666666s-17.066667 42.666667-42.666666 42.666667H341.333333l46.933334 85.333333h315.733333zM307.2 640h516.266667l-119.466667-213.333333h-298.666667L307.2 640zM341.333333 128c-46.933333 0-85.333333-38.4-85.333333-85.333333s38.4-85.333333 85.333333-85.333334 85.333333 38.4 85.333334 85.333334-38.4 85.333333-85.333334 85.333333z m426.666667 0c-46.933333 0-85.333333-38.4-85.333333-85.333333s38.4-85.333333 85.333333-85.333334 85.333333 38.4 85.333333 85.333334-38.4 85.333333-85.333333 85.333333z"  horiz-adv-x="1024" />

    
    <glyph glyph-name="round-local_shipping-px" unicode="&#58935;" d="M832 554.666667H725.333333V640c0 46.933333-38.4 85.333333-85.333333 85.333333H128c-46.933333 0-85.333333-38.4-85.333333-85.333333v-384c0-46.933333 38.4-85.333333 85.333333-85.333333 0-70.826667 57.173333-128 128-128s128 57.173333 128 128h256c0-70.826667 57.173333-128 128-128s128 57.173333 128 128h42.666667c23.466667 0 42.666667 19.2 42.666666 42.666666v142.08c0 18.346667-5.973333 36.266667-17.066666 51.2L866.133333 537.6c-8.106667 10.666667-20.906667 17.066667-34.133333 17.066667zM256 128c-23.466667 0-42.666667 19.2-42.666667 42.666667s19.2 42.666667 42.666667 42.666666 42.666667-19.2 42.666667-42.666666-19.2-42.666667-42.666667-42.666667z m576 362.666667l83.626667-106.666667H725.333333V490.666667h106.666667zM768 128c-23.466667 0-42.666667 19.2-42.666667 42.666667s19.2 42.666667 42.666667 42.666666 42.666667-19.2 42.666667-42.666666-19.2-42.666667-42.666667-42.666667z"  horiz-adv-x="1024" />

    
    <glyph glyph-name="round-notifications-px" unicode="&#58936;" d="M512-42.666667c46.933333 0 85.333333 38.4 85.333333 85.333334h-170.666666c0-46.933333 38.4-85.333333 85.333333-85.333334zM823.466667 157.866667L768 213.333333v213.333334c0 132.266667-68.266667 238.933333-192 268.8V725.333333c0 34.133333-29.866667 64-64 64s-64-29.866667-64-64v-29.866666C324.266667 665.6 256 558.933333 256 426.666667v-213.333334l-55.466667-55.466666c-25.6-25.6-8.533333-72.533333 29.866667-72.533334h563.2c38.4 0 55.466667 46.933333 29.866667 72.533334zM682.666667 170.666667H341.333333v256c0 106.666667 64 192 170.666667 192s170.666667-85.333333 170.666667-192v-256z"  horiz-adv-x="1024" />

    
    <glyph glyph-name="round-favorite_border-px" unicode="&#58937;" d="M840.533333 725.333333C725.333333 802.133333 588.8 768 512 678.4 435.2 768 298.666667 802.133333 183.466667 725.333333 123.733333 682.666667 89.6 614.4 85.333333 541.866667c-4.266667-166.4 140.8-298.666667 366.933334-503.466667l4.266666-4.266667c34.133333-29.866667 81.066667-29.866667 115.2 0l4.266667 4.266667c226.133333 204.8 371.2 337.066667 366.933333 503.466667-8.533333 72.533333-42.666667 140.8-102.4 183.466666z m-324.266666-618.666666l-4.266667-4.266667-4.266667 4.266667C302.933333 290.133333 170.666667 409.6 170.666667 533.333333 170.666667 618.666667 234.666667 682.666667 320 682.666667c64 0 128-42.666667 153.6-102.4H554.666667C576 640 640 682.666667 704 682.666667c85.333333 0 149.333333-64 149.333333-149.333334 0-123.733333-132.266667-243.2-337.066666-426.666666z"  horiz-adv-x="1024" />

    
    <glyph glyph-name="round-bar_chart-px" unicode="&#58938;" d="M273.066667 503.466667h8.533333c34.133333 0 59.733333-25.6 59.733333-59.733334v-298.666666c0-34.133333-25.6-59.733333-59.733333-59.733334h-8.533333c-34.133333 0-59.733333 25.6-59.733334 59.733334v298.666666c0 34.133333 25.6 59.733333 59.733334 59.733334zM512 682.666667c34.133333 0 59.733333-25.6 59.733333-59.733334v-477.866666c0-34.133333-25.6-59.733333-59.733333-59.733334-34.133333 0-59.733333 25.6-59.733333 59.733334V622.933333c0 34.133333 25.6 59.733333 59.733333 59.733334z m238.933333-341.333334c34.133333 0 59.733333-25.6 59.733334-59.733333v-136.533333c0-34.133333-25.6-59.733333-59.733334-59.733334s-59.733333 25.6-59.733333 59.733334v136.533333c0 34.133333 25.6 59.733333 59.733333 59.733333z"  horiz-adv-x="1024" />

    
    <glyph glyph-name="round-expand_more-px" unicode="&#58939;" d="M678.4 499.2L512 332.8 345.6 499.2c-17.066667 17.066667-42.666667 17.066667-59.733333 0s-17.066667-42.666667 0-59.733333l196.266666-196.266667c17.066667-17.066667 42.666667-17.066667 59.733334 0l196.266666 196.266667c17.066667 17.066667 17.066667 42.666667 0 59.733333-17.066667 17.066667-42.666667 17.066667-59.733333 0z"  horiz-adv-x="1024" />

    
    <glyph glyph-name="outline-receipt-px" unicode="&#58940;" d="M832 746.666667l-42.666667 42.666666c-12.8 12.8-29.866667 12.8-42.666666 0l-42.666667-42.666666-42.666667 42.666666c-12.8 12.8-29.866667 12.8-42.666666 0l-42.666667-42.666666-42.666667 42.666666c-12.8 12.8-29.866667 12.8-42.666666 0l-42.666667-42.666666-42.666667 42.666666c-12.8 12.8-29.866667 12.8-42.666666 0l-42.666667-42.666666-42.666667 42.666666c-12.8 12.8-29.866667 12.8-42.666666 0l-42.666667-42.666666L128 810.666667v-853.333334l64 64 42.666667-42.666666c12.8-12.8 29.866667-12.8 42.666666 0l42.666667 42.666666 42.666667-42.666666c12.8-12.8 29.866667-12.8 42.666666 0l42.666667 42.666666 42.666667-42.666666c12.8-12.8 29.866667-12.8 42.666666 0l42.666667 42.666666 42.666667-42.666666c12.8-12.8 29.866667-12.8 42.666666 0l42.666667 42.666666 42.666667-42.666666c12.8-12.8 29.866667-12.8 42.666666 0l42.666667 42.666666L896-42.666667V810.666667l-64-64zM810.666667 81.066667H213.333333V686.933333h597.333334v-605.866666zM256 256h512v-85.333333H256v85.333333z m0 170.666667h512v-85.333334H256v85.333334z m0 170.666666h512v-85.333333H256V597.333333z"  horiz-adv-x="1024" />

    
    <glyph glyph-name="outline-store-px" unicode="&#58941;" d="M810.666667 725.333333H213.333333c-25.6 0-42.666667-17.066667-42.666666-42.666666s17.066667-42.666667 42.666666-42.666667h597.333334c25.6 0 42.666667 17.066667 42.666666 42.666667s-17.066667 42.666667-42.666666 42.666666zM827.733333 597.333333H196.266667c-17.066667 0-25.6-8.533333-29.866667-25.6L128 384v-85.333333h42.666667v-256h426.666666v256h170.666667v-256h85.333333v256h42.666667v85.333333l-38.4 187.733333c-4.266667 17.066667-12.8 25.6-29.866667 25.6zM512 128H256v170.666667h256v-170.666667z m-298.666667 256l25.6 128h541.866667l25.6-128H213.333333z"  horiz-adv-x="1024" />

    
    <glyph glyph-name="round-expand_more-px-copy" unicode="&#58942;" d="M396.8 550.4L563.2 384 396.8 217.60000000000002c-17.066667-17.066667-17.066667-42.666667 0-59.733333s42.666667-17.066667 59.733333 0l196.266667 196.266666c17.066667 17.066667 17.066667 42.666667 0 59.733334l-196.266667 196.266666c-17.066667 17.066667-42.666667 17.066667-59.733333 0-17.066667-17.066667-17.066667-42.666667 0-59.733333z"  horiz-adv-x="1024" />

    


  </font>
</defs>
</svg>
